<svg xmlns="http://www.w3.org/2000/svg" display="none">
    <symbol id="arrow-right" viewBox="0 0 25 8">
        <path d="M24.3529 4.35355C24.5481 4.15829 24.5481 3.84171 24.3529 3.64645L21.1709 0.464466C20.9756 0.269204 20.6591 0.269204 20.4638 0.464466C20.2685 0.659728 20.2685 0.976311 20.4638 1.17157L23.2922 4L20.4638 6.82843C20.2685 7.02369 20.2685 7.34027 20.4638 7.53553C20.6591 7.7308 20.9756 7.7308 21.1709 7.53553L24.3529 4.35355ZM-0.000671387 4.5H23.9993V3.5H-0.000671387V4.5Z"/>
    </symbol>

    <symbol id="arrow-left" viewBox="0 0 25 8">
        <path d="M0.646448 3.64645C0.451185 3.84171 0.451185 4.15829 0.646448 4.35356L3.82843 7.53554C4.02369 7.7308 4.34027 7.7308 4.53553 7.53554C4.7308 7.34027 4.7308 7.02369 4.53553 6.82843L1.70711 4L4.53553 1.17157C4.7308 0.976313 4.7308 0.65973 4.53553 0.464468C4.34027 0.269206 4.02369 0.269206 3.82843 0.464468L0.646448 3.64645ZM25 3.5L1 3.5L1 4.5L25 4.5L25 3.5Z"/>
    </symbol>


    <symbol id="checkbox" viewBox="0 0 33 31">
        <path d="M12 30.5C10.5 24 4 19.6667 0 17.5C6 16.5 7.5 18.5 11 20.5C13 12.5 27.3333 3.16667 33 0C26.5829 4 14.5 17.5 12 30.5Z"/>
    </symbol>

    <symbol id="mortgage" viewBox="0 0 48 48">
        <g clip-path="url(#clip0)">
            <path d="M47.9659 18.2103C47.8538 17.51 47.4755 16.8954 46.9011 16.4795L25.5559 1.03026C24.625 0.356288 23.3736 0.356288 22.4424 1.03026L10.4072 9.74115C10.0833 9.97562 10.0106 10.4283 10.2452 10.7523C10.4797 11.0762 10.9324 11.149 11.2564 10.9143L23.2915 2.20345C23.7148 1.89717 24.2835 1.89717 24.7066 2.20345L46.0518 17.6527C46.313 17.8417 46.4849 18.1211 46.536 18.4394C46.587 18.7577 46.5108 19.0768 46.3218 19.3381C46.0955 19.6507 45.7295 19.8374 45.3426 19.8374C45.088 19.8374 44.8439 19.7582 44.6366 19.6081L24.4237 4.97817C24.1705 4.7948 23.828 4.7948 23.5747 4.97817L3.36167 19.608C3.10058 19.797 2.78145 19.873 2.46317 19.8219C2.14489 19.7709 1.86542 19.599 1.67642 19.3379C1.28623 18.7987 1.40745 18.0427 1.94642 17.6525L9.47081 12.2065C9.79472 11.972 9.86737 11.5193 9.63281 11.1953C9.39843 10.8715 8.94571 10.7987 8.62162 11.0333L1.09723 16.4794C-0.0887055 17.3377 -0.355143 19.001 0.503139 20.187C0.919015 20.7615 1.53364 21.1396 2.23386 21.2518C2.37617 21.2746 2.5183 21.2859 2.65967 21.2859C3.21402 21.2859 3.75299 21.1124 4.21068 20.7811L23.9992 6.45858L43.7875 20.7812C44.2435 21.1112 44.7812 21.2855 45.3426 21.2855C46.1926 21.2855 46.9973 20.8749 47.4949 20.1871C47.911 19.6126 48.0781 18.9106 47.9659 18.2103Z"
                  fill="#004AAD"/>
            <path d="M42.6804 38.4379C42.2804 38.4379 41.9563 38.7621 41.9563 39.162V44.5348C41.9563 45.3575 41.2868 46.027 40.4641 46.027H7.53453C6.71178 46.027 6.04231 45.3575 6.04231 44.5348V23.2444C6.04231 22.8445 5.71812 22.5203 5.31818 22.5203C4.91824 22.5203 4.59406 22.8445 4.59406 23.2444V44.5348C4.59406 46.1561 5.91321 47.4753 7.53453 47.4753H40.4641C42.0855 47.4753 43.4046 46.1561 43.4046 44.5348V39.162C43.4046 38.7622 43.0805 38.4379 42.6804 38.4379Z"
                  fill="#004AAD"/>
            <path d="M42.6805 22.5204C42.2804 22.5204 41.9563 22.8446 41.9563 23.2445V36.7483C41.9563 37.1482 42.2804 37.4724 42.6805 37.4724C43.0805 37.4724 43.4046 37.1482 43.4046 36.7483V23.2444C43.4046 22.8446 43.0805 22.5204 42.6805 22.5204Z"
                  fill="#004AAD"/>
            <path d="M19.4377 22.6819C17.122 22.6819 15.2381 24.5658 15.2381 26.8815C15.2381 29.1972 17.122 31.0812 19.4377 31.0812C21.7534 31.0812 23.6373 29.1972 23.6373 26.8815C23.6373 24.5658 21.7534 22.6819 19.4377 22.6819ZM19.4377 29.6329C17.9205 29.6329 16.6862 28.3986 16.6862 26.8814C16.6862 25.3643 17.9205 24.13 19.4377 24.13C20.9549 24.13 22.1892 25.3643 22.1892 26.8814C22.1891 28.3987 20.9549 29.6329 19.4377 29.6329Z"
                  fill="#004AAD"/>
            <path d="M28.5609 31.8051C26.2451 31.8051 24.3612 33.689 24.3612 36.0047C24.3612 38.3204 26.2451 40.2043 28.5609 40.2043C30.8766 40.2043 32.7605 38.3204 32.7605 36.0047C32.7605 33.689 30.8766 31.8051 28.5609 31.8051ZM28.5609 38.7562C27.0437 38.7562 25.8094 37.5218 25.8094 36.0047C25.8094 34.4875 27.0437 33.2532 28.5609 33.2532C30.078 33.2532 31.3123 34.4875 31.3123 36.0047C31.3123 37.5218 30.078 38.7562 28.5609 38.7562Z"
                  fill="#004AAD"/>
            <path d="M30.2316 25.2108C29.9488 24.9281 29.4904 24.9281 29.2074 25.2108L17.7671 36.6513C17.4843 36.934 17.4843 37.3926 17.7671 37.6753C17.9085 37.8167 18.0938 37.8875 18.2791 37.8875C18.4643 37.8875 18.6497 37.8168 18.791 37.6753L30.2316 26.2349C30.5144 25.9521 30.5144 25.4936 30.2316 25.2108Z"
                  fill="#004AAD"/>
            <path d="M41.2896 1.99255H34.3384C33.9384 1.99255 33.6143 2.31674 33.6143 2.71668V5.3234C33.6143 5.72325 33.9384 6.04744 34.3384 6.04744C34.7385 6.04744 35.0626 5.72315 35.0626 5.32322V3.44071H40.5655V10.5367C40.5655 10.9366 40.8896 11.2608 41.2896 11.2608C41.6897 11.2608 42.0138 10.9366 42.0138 10.5367V2.71659C42.0138 2.31674 41.6897 1.99255 41.2896 1.99255Z"
                  fill="#004AAD"/>
        </g>
        <defs>
            <clipPath id="clip0">
                <rect width="48" height="48" fill="white"/>
            </clipPath>
        </defs>
    </symbol>

    <symbol id="mortgage2" viewBox="0 0 48 48" fill="none">
        <g clip-path="url(#clip0)">
            <path d="M47.9659 18.2103C47.8538 17.51 47.4755 16.8954 46.9011 16.4795L25.5559 1.03026C24.625 0.356288 23.3736 0.356288 22.4424 1.03026L10.4072 9.74115C10.0833 9.97562 10.0106 10.4283 10.2452 10.7523C10.4797 11.0762 10.9324 11.149 11.2564 10.9143L23.2915 2.20345C23.7148 1.89717 24.2835 1.89717 24.7066 2.20345L46.0518 17.6527C46.313 17.8417 46.4849 18.1211 46.536 18.4394C46.587 18.7577 46.5108 19.0768 46.3218 19.3381C46.0955 19.6507 45.7295 19.8374 45.3426 19.8374C45.088 19.8374 44.8439 19.7582 44.6366 19.6081L24.4237 4.97817C24.1705 4.7948 23.828 4.7948 23.5747 4.97817L3.36167 19.608C3.10058 19.797 2.78145 19.873 2.46317 19.8219C2.14489 19.7709 1.86542 19.599 1.67642 19.3379C1.28623 18.7987 1.40745 18.0427 1.94642 17.6525L9.47081 12.2065C9.79472 11.972 9.86737 11.5193 9.63281 11.1953C9.39843 10.8715 8.94571 10.7987 8.62162 11.0333L1.09723 16.4794C-0.0887055 17.3377 -0.355143 19.001 0.503139 20.187C0.919015 20.7615 1.53364 21.1396 2.23386 21.2518C2.37617 21.2746 2.5183 21.2859 2.65967 21.2859C3.21402 21.2859 3.75299 21.1124 4.21068 20.7811L23.9992 6.45858L43.7875 20.7812C44.2435 21.1112 44.7812 21.2855 45.3426 21.2855C46.1926 21.2855 46.9973 20.8749 47.4949 20.1871C47.911 19.6126 48.0781 18.9106 47.9659 18.2103Z"
                  fill="#004AAD"/>
            <path d="M42.6804 38.4379C42.2803 38.4379 41.9563 38.7621 41.9563 39.162V44.5348C41.9563 45.3575 41.2868 46.027 40.464 46.027H7.53447C6.71172 46.027 6.04225 45.3575 6.04225 44.5348V23.2444C6.04225 22.8445 5.71806 22.5203 5.31812 22.5203C4.91818 22.5203 4.59399 22.8445 4.59399 23.2444V44.5348C4.59399 46.1561 5.91315 47.4753 7.53447 47.4753H40.464C42.0854 47.4753 43.4045 46.1561 43.4045 44.5348V39.162C43.4045 38.7622 43.0804 38.4379 42.6804 38.4379Z"
                  fill="#004AAD"/>
            <path d="M42.6804 22.5204C42.2804 22.5204 41.9563 22.8446 41.9563 23.2445V36.7483C41.9563 37.1482 42.2804 37.4724 42.6804 37.4724C43.0805 37.4724 43.4045 37.1482 43.4045 36.7483V23.2444C43.4045 22.8446 43.0805 22.5204 42.6804 22.5204Z"
                  fill="#004AAD"/>
            <path d="M41.2896 1.99255H34.3384C33.9384 1.99255 33.6143 2.31674 33.6143 2.71668V5.3234C33.6143 5.72325 33.9384 6.04744 34.3384 6.04744C34.7384 6.04744 35.0625 5.72315 35.0625 5.32322V3.44071H40.5655V10.5367C40.5655 10.9366 40.8896 11.2608 41.2896 11.2608C41.6896 11.2608 42.0137 10.9366 42.0137 10.5367V2.71659C42.0137 2.31674 41.6896 1.99255 41.2896 1.99255Z"
                  fill="#004AAD"/>
            <path d="M12 47V29C12 28.4477 12.4477 28 13 28H22C22.5523 28 23 28.4477 23 29V47" stroke="#004AAD"
                  stroke-width="1.5"/>
            <mask id="path-6-inside-1" fill="white">
                <rect x="28" y="27" width="10" height="10" rx="1"/>
            </mask>
            <rect x="28" y="27" width="10" height="10" rx="1" stroke="#004AAD" stroke-width="1.5"
                  mask="url(#path-6-inside-1)"/>
            <path d="M29 33C31 33 33 30.4 33 28C33 30.3455 35 33 37 33" stroke="#004AAD"/>
        </g>
        <defs>
            <clipPath id="clip0">
                <rect width="48" height="48" fill="white"/>
            </clipPath>
        </defs>
    </symbol>

    <symbol id="luggage" viewBox="0 0 48 48">
        <path d="M26.2598 27.1025H32.7316C33.2002 27.1025 33.5814 26.7214 33.5814 26.2529V19.7809C33.5814 19.3124 33.2002 18.9313 32.7316 18.9313H26.2598C25.7912 18.9313 25.41 19.3124 25.41 19.7809V26.2529C25.41 26.7213 25.7912 27.1025 26.2598 27.1025ZM26.8163 20.3374H32.1752V25.6963H26.8163V20.3374Z"
              fill="#004AAD"/>
        <path d="M18.5391 31.7286C18.539 31.7287 18.539 31.7288 18.5389 31.7289L14.6282 37.1493C14.4413 37.4081 14.4155 37.7454 14.561 38.0297C14.7064 38.3139 14.995 38.4906 15.3142 38.4906H23.136C23.4552 38.4906 23.7438 38.3139 23.8892 38.0298C24.0346 37.7455 24.0088 37.4081 23.822 37.1494L19.9113 31.7291C19.7528 31.5093 19.4963 31.378 19.2254 31.3779H19.2251C18.9543 31.3779 18.6978 31.5091 18.5391 31.7286ZM22.0411 37.0843H16.4091L19.2251 33.1813L22.0411 37.0843Z"
              fill="#004AAD"/>
        <path d="M31.8217 32.8672C32.2101 32.8672 32.5248 32.5525 32.5248 32.1641C32.5248 31.7757 32.2101 31.4609 31.8217 31.4609H28.0439C27.6555 31.4609 27.3408 31.7757 27.3408 32.1641C27.3408 32.5525 27.6555 32.8672 28.0439 32.8672H31.8217Z"
              fill="#004AAD"/>
        <path d="M32.7592 34.4863H27.1064C26.718 34.4863 26.4033 34.801 26.4033 35.1895C26.4033 35.5779 26.718 35.8926 27.1064 35.8926H32.7592C33.1476 35.8926 33.4623 35.5779 33.4623 35.1895C33.4623 34.801 33.1475 34.4863 32.7592 34.4863Z"
              fill="#004AAD"/>
        <path d="M44.7622 10.592H33.1611V8.79102C33.1611 5.54287 30.5184 2.90015 27.2701 2.90015H25.4057C25.0173 2.90015 24.7026 3.21487 24.7026 3.60327C24.7026 3.99168 25.0173 4.3064 25.4057 4.3064H27.2701C29.7429 4.3064 31.7548 6.31818 31.7548 8.79102V10.592H30.0673V8.79102C30.0673 7.24874 28.8125 5.9939 27.2701 5.9939H20.73C19.1876 5.9939 17.9328 7.24874 17.9328 8.79102V10.592H16.2453V8.79102C16.2453 6.31818 18.2572 4.3064 20.73 4.3064H22.5944C22.9828 4.3064 23.2975 3.99168 23.2975 3.60327C23.2975 3.21487 22.9828 2.90015 22.5944 2.90015H20.73C17.4817 2.90015 14.839 5.54277 14.839 8.79102V10.592H3.23784C1.45247 10.592 0 12.0445 0 13.8299V33.7838C0 34.1722 0.314719 34.487 0.703125 34.487C1.09153 34.487 1.40625 34.1722 1.40625 33.7838V13.8299C1.40625 12.82 2.22797 11.9983 3.23784 11.9983H7.45875V40.8813H3.23784C2.22797 40.8813 1.40625 40.0596 1.40625 39.0497V36.5951C1.40625 36.2067 1.09153 35.892 0.703125 35.892C0.314719 35.892 0 36.2067 0 36.5951V39.0497C0 40.835 1.45247 42.2875 3.23784 42.2875H9.49519L9.85106 44.5082C9.90572 44.8492 10.2 45.1 10.5453 45.1H13.295C13.6404 45.1 13.9345 44.8491 13.9892 44.5082L14.345 42.2875H33.6548L34.0107 44.5082C34.0654 44.8492 34.3597 45.1 34.7049 45.1H37.4546C37.8001 45.1 38.0942 44.8491 38.1488 44.5082L38.5046 42.2875H44.762C46.5473 42.2875 47.9998 40.835 47.9998 39.0497V13.8299C48 12.0445 46.5475 10.592 44.7622 10.592ZM19.339 8.79112C19.339 8.02415 19.963 7.40024 20.73 7.40024H27.2701C28.0371 7.40024 28.6611 8.02415 28.6611 8.79112V10.5921H19.339V8.79112ZM35.3602 11.9982V40.8812H12.6398V22.664C13.1362 22.8549 13.6662 22.9538 14.2132 22.9538C16.6361 22.9538 18.6072 20.9827 18.6072 18.5598C18.6072 16.1369 16.6361 14.1658 14.2132 14.1658C13.6663 14.1658 13.1362 14.2647 12.6398 14.4556V11.9982H35.3602ZM12.6398 16.0226C13.1114 15.7282 13.6487 15.5721 14.2132 15.5721C15.8606 15.5721 17.201 16.9124 17.201 18.5598C17.201 20.2072 15.8606 21.5476 14.2132 21.5476C13.6487 21.5476 13.1114 21.3914 12.6398 21.0969V16.0226ZM8.86509 11.9982H11.2337V40.8812H8.86509V11.9982ZM12.6956 43.6937H11.1447L10.9194 42.2874H12.921L12.6956 43.6937ZM36.8554 43.6937H35.3045L35.0792 42.2874H37.0807L36.8554 43.6937ZM46.5937 39.0496C46.5937 40.0595 45.772 40.8812 44.7622 40.8812H40.5412V26.1456C40.5412 25.7571 40.2265 25.4424 39.8381 25.4424C39.4497 25.4424 39.135 25.7571 39.135 26.1456V40.8813H36.7664V11.9982H39.135V23.3342C39.135 23.7226 39.4497 24.0373 39.8381 24.0373C40.2265 24.0373 40.5412 23.7226 40.5412 23.3342V11.9982H44.7622C45.772 11.9982 46.5937 12.8199 46.5937 13.8298V39.0496Z"
              fill="#004AAD"/>
    </symbol>

    <symbol id="locker" viewBox="0 0 48 48">
        <path d="M43.4595 42.8108H4.54055C3.6807 42.8098 2.85637 42.4677 2.24836 41.8597C1.64036 41.2517 1.29833 40.4274 1.2973 39.5675V5.18917C1.29833 4.32932 1.64036 3.50499 2.24836 2.89698C2.85637 2.28898 3.6807 1.94695 4.54055 1.94592H43.4595C44.3193 1.94695 45.1436 2.28898 45.7517 2.89698C46.3597 3.50499 46.7017 4.32932 46.7027 5.18917V39.5675C46.7017 40.4274 46.3597 41.2517 45.7517 41.8597C45.1436 42.4677 44.3193 42.8098 43.4595 42.8108ZM4.54055 3.24322C4.02445 3.24322 3.52949 3.44824 3.16455 3.81317C2.79962 4.17811 2.5946 4.67307 2.5946 5.18917V39.5675C2.5946 40.0836 2.79962 40.5786 3.16455 40.9435C3.52949 41.3085 4.02445 41.5135 4.54055 41.5135H43.4595C43.9756 41.5135 44.4705 41.3085 44.8355 40.9435C45.2004 40.5786 45.4054 40.0836 45.4054 39.5675V5.18917C45.4054 4.67307 45.2004 4.17811 44.8355 3.81317C44.4705 3.44824 43.9756 3.24322 43.4595 3.24322H4.54055Z"
              fill="#004AAD"/>
        <path d="M7.78378 26.919C7.61175 26.919 7.44676 26.8506 7.32512 26.729C7.20347 26.6073 7.13513 26.4424 7.13513 26.2703V18.4865C7.13513 18.3145 7.20347 18.1495 7.32512 18.0279C7.44676 17.9062 7.61175 17.8379 7.78378 17.8379C7.95581 17.8379 8.1208 17.9062 8.24245 18.0279C8.36409 18.1495 8.43243 18.3145 8.43243 18.4865V26.2703C8.43243 26.4424 8.36409 26.6073 8.24245 26.729C8.1208 26.8506 7.95581 26.919 7.78378 26.919Z"
              fill="#004AAD"/>
        <path d="M40.2162 36.973H7.78378C7.61175 36.973 7.44676 36.9047 7.32512 36.783C7.20347 36.6614 7.13513 36.4964 7.13513 36.3244V31.4595C7.13513 31.2875 7.20347 31.1225 7.32512 31.0008C7.44676 30.8792 7.61175 30.8108 7.78378 30.8108C7.95581 30.8108 8.1208 30.8792 8.24244 31.0008C8.36409 31.1225 8.43243 31.2875 8.43243 31.4595V35.6757H39.5676V9.08111H8.43243V13.2973C8.43243 13.4694 8.36409 13.6343 8.24244 13.756C8.1208 13.8776 7.95581 13.946 7.78378 13.946C7.61175 13.946 7.44676 13.8776 7.32512 13.756C7.20347 13.6343 7.13513 13.4694 7.13513 13.2973V8.43246C7.13513 8.26043 7.20347 8.09544 7.32512 7.9738C7.44676 7.85215 7.61175 7.78381 7.78378 7.78381H40.2162C40.3882 7.78381 40.5532 7.85215 40.6749 7.9738C40.7965 8.09544 40.8649 8.26043 40.8649 8.43246V36.3244C40.8649 36.4964 40.7965 36.6614 40.6749 36.783C40.5532 36.9047 40.3882 36.973 40.2162 36.973Z"
              fill="#004AAD"/>
        <path d="M13.6216 46.0541H8.4324C8.26037 46.0541 8.09538 45.9858 7.97374 45.8641C7.85209 45.7425 7.78375 45.5775 7.78375 45.4054V42.1622C7.78375 41.9902 7.85209 41.8252 7.97374 41.7035C8.09538 41.5819 8.26037 41.5135 8.4324 41.5135H13.6216C13.7936 41.5135 13.9586 41.5819 14.0803 41.7035C14.2019 41.8252 14.2702 41.9902 14.2702 42.1622V45.4054C14.2702 45.5775 14.2019 45.7425 14.0803 45.8641C13.9586 45.9858 13.7936 46.0541 13.6216 46.0541ZM9.08105 44.7568H12.9729V42.8108H9.08105V44.7568Z"
              fill="#004AAD"/>
        <path d="M39.5675 46.0541H34.3783C34.2063 46.0541 34.0413 45.9858 33.9197 45.8641C33.798 45.7425 33.7297 45.5775 33.7297 45.4054V42.1622C33.7297 41.9902 33.798 41.8252 33.9197 41.7035C34.0413 41.5819 34.2063 41.5135 34.3783 41.5135H39.5675C39.7395 41.5135 39.9045 41.5819 40.0262 41.7035C40.1478 41.8252 40.2161 41.9902 40.2161 42.1622V45.4054C40.2161 45.5775 40.1478 45.7425 40.0262 45.8641C39.9045 45.9858 39.7395 46.0541 39.5675 46.0541ZM35.027 44.7568H38.9189V42.8108H35.027V44.7568Z"
              fill="#004AAD"/>
        <path d="M8.72953 19.1352H6.83807C6.494 19.1352 6.16403 18.9985 5.92074 18.7552C5.67745 18.5119 5.54077 18.1819 5.54077 17.8379V13.946C5.54077 13.6019 5.67745 13.2719 5.92074 13.0287C6.16403 12.7854 6.494 12.6487 6.83807 12.6487H8.73018C9.07424 12.6487 9.40421 12.7854 9.64751 13.0287C9.8908 13.2719 10.0275 13.6019 10.0275 13.946V17.8379C10.0275 18.0083 9.9939 18.177 9.92866 18.3345C9.86343 18.4919 9.76781 18.635 9.64728 18.7554C9.52674 18.8759 9.38365 18.9714 9.22618 19.0366C9.06871 19.1018 8.89995 19.1353 8.72953 19.1352ZM8.72953 13.946H6.83807V17.8379H8.73018L8.72953 13.946Z"
              fill="#004AAD"/>
        <path d="M8.72953 32.1081H6.83807C6.494 32.1081 6.16403 31.9714 5.92074 31.7281C5.67745 31.4848 5.54077 31.1548 5.54077 30.8108V26.9189C5.54077 26.5748 5.67745 26.2448 5.92074 26.0015C6.16403 25.7583 6.494 25.6216 6.83807 25.6216H8.73018C9.07424 25.6216 9.40421 25.7583 9.64751 26.0015C9.8908 26.2448 10.0275 26.5748 10.0275 26.9189V30.8108C10.0275 30.9812 9.9939 31.1499 9.92866 31.3074C9.86343 31.4648 9.76781 31.6078 9.64728 31.7283C9.52674 31.8488 9.38365 31.9443 9.22618 32.0095C9.06871 32.0746 8.89995 32.1081 8.72953 32.1081ZM8.72953 26.9189H6.83807V30.8108H8.73018L8.72953 26.9189Z"
              fill="#004AAD"/>
        <path d="M26.4136 29.4948C25.0062 29.4948 23.6303 29.0774 22.46 28.2954C21.2897 27.5135 20.3776 26.4021 19.839 25.1017C19.3004 23.8014 19.1595 22.3705 19.434 20.9901C19.7086 19.6097 20.3864 18.3416 21.3816 17.3464C22.3769 16.3512 23.6449 15.6734 25.0253 15.3988C26.4057 15.1242 27.8366 15.2652 29.1369 15.8038C30.4373 16.3424 31.5487 17.2545 32.3306 18.4248C33.1126 19.5951 33.53 20.9709 33.53 22.3784C33.5277 24.2651 32.7773 26.0739 31.4432 27.408C30.1091 28.742 28.3003 29.4925 26.4136 29.4948ZM26.4136 16.5594C25.2627 16.5594 24.1377 16.9007 23.1808 17.5401C22.2238 18.1795 21.478 19.0883 21.0376 20.1516C20.5971 21.2149 20.4819 22.3849 20.7064 23.5137C20.9309 24.6424 21.4852 25.6793 22.299 26.4931C23.1128 27.3069 24.1496 27.8611 25.2784 28.0856C26.4072 28.3102 27.5772 28.1949 28.6405 27.7545C29.7038 27.3141 30.6126 26.5682 31.252 25.6113C31.8914 24.6544 32.2327 23.5293 32.2327 22.3784C32.2309 20.8356 31.6173 19.3565 30.5264 18.2656C29.4355 17.1747 27.9564 16.5611 26.4136 16.5594Z"
              fill="#004AAD"/>
        <path d="M26.4136 25.8655C25.724 25.8651 25.05 25.6603 24.4768 25.2769C23.9036 24.8935 23.4569 24.3487 23.1933 23.7115C22.9297 23.0743 22.8609 22.3732 22.9956 21.6969C23.1304 21.0206 23.4627 20.3994 23.9505 19.9119C24.4382 19.4244 25.0596 19.0925 25.736 18.9581C26.4123 18.8237 27.1134 18.8929 27.7505 19.1569C28.3875 19.4209 28.9321 19.8678 29.3151 20.4412C29.6982 21.0146 29.9027 21.6888 29.9027 22.3784C29.9017 23.3032 29.5337 24.1899 28.8795 24.8437C28.2253 25.4975 27.3385 25.865 26.4136 25.8655ZM26.4136 20.1885C25.9806 20.1889 25.5574 20.3177 25.1975 20.5585C24.8377 20.7994 24.5573 21.1415 24.3918 21.5417C24.2264 21.9419 24.1833 22.3821 24.268 22.8068C24.3527 23.2314 24.5615 23.6215 24.8678 23.9275C25.1741 24.2336 25.5643 24.4419 25.989 24.5263C26.4138 24.6106 26.854 24.5671 27.254 24.4013C27.654 24.2355 27.9959 23.9549 28.2365 23.5948C28.477 23.2347 28.6054 22.8114 28.6054 22.3784C28.6047 21.7975 28.3735 21.2406 27.9626 20.83C27.5516 20.4194 26.9945 20.1887 26.4136 20.1885Z"
              fill="#004AAD"/>
        <path d="M26.4136 20.1885C26.2416 20.1885 26.0766 20.1202 25.9549 19.9985C25.8333 19.8769 25.765 19.7119 25.765 19.5399V15.9074C25.765 15.7354 25.8333 15.5704 25.9549 15.4488C26.0766 15.3271 26.2416 15.2588 26.4136 15.2588C26.5856 15.2588 26.7506 15.3271 26.8723 15.4488C26.9939 15.5704 27.0623 15.7354 27.0623 15.9074V19.5399C27.0623 19.7119 26.9939 19.8769 26.8723 19.9985C26.7506 20.1202 26.5856 20.1885 26.4136 20.1885Z"
              fill="#004AAD"/>
        <path d="M26.4136 29.4947C26.2416 29.4947 26.0766 29.4263 25.9549 29.3047C25.8333 29.183 25.765 29.0181 25.765 28.846V25.2136C25.765 25.0416 25.8333 24.8766 25.9549 24.7549C26.0766 24.6333 26.2416 24.5649 26.4136 24.5649C26.5856 24.5649 26.7506 24.6333 26.8723 24.7549C26.9939 24.8766 27.0623 25.0416 27.0623 25.2136V28.846C27.0623 29.0181 26.9939 29.183 26.8723 29.3047C26.7506 29.4263 26.5856 29.4947 26.4136 29.4947Z"
              fill="#004AAD"/>
        <path d="M24.4067 21.0201C24.2347 21.02 24.0697 20.9517 23.9481 20.83L21.3814 18.2633C21.2633 18.141 21.1979 17.9771 21.1994 17.8071C21.2008 17.637 21.2691 17.4743 21.3893 17.354C21.5096 17.2338 21.6723 17.1656 21.8424 17.1641C22.0124 17.1626 22.1763 17.228 22.2986 17.3461L24.8653 19.9135C24.956 20.0042 25.0178 20.1198 25.0428 20.2456C25.0678 20.3714 25.0549 20.5018 25.0059 20.6203C24.9568 20.7388 24.8737 20.8401 24.767 20.9114C24.6604 20.9827 24.535 21.0207 24.4067 21.0207V21.0201Z"
              fill="#004AAD"/>
        <path d="M30.9872 27.6006C30.8151 27.6005 30.6502 27.5322 30.5286 27.4105L27.9619 24.8432C27.8437 24.7208 27.7783 24.557 27.7798 24.3869C27.7813 24.2168 27.8495 24.0541 27.9698 23.9339C28.09 23.8136 28.2527 23.7454 28.4228 23.7439C28.5929 23.7424 28.7567 23.8078 28.8791 23.926L31.4458 26.4927C31.5364 26.5834 31.5982 26.699 31.6232 26.8248C31.6482 26.9506 31.6354 27.081 31.5863 27.1995C31.5372 27.318 31.4541 27.4193 31.3475 27.4906C31.2408 27.5618 31.1154 27.5999 30.9872 27.5999V27.6006Z"
              fill="#004AAD"/>
        <path d="M23.5751 23.027H19.9427C19.7707 23.027 19.6057 22.9587 19.4841 22.837C19.3624 22.7154 19.2941 22.5504 19.2941 22.3784C19.2941 22.2064 19.3624 22.0414 19.4841 21.9197C19.6057 21.7981 19.7707 21.7297 19.9427 21.7297H23.5751C23.7472 21.7297 23.9122 21.7981 24.0338 21.9197C24.1554 22.0414 24.2238 22.2064 24.2238 22.3784C24.2238 22.5504 24.1554 22.7154 24.0338 22.837C23.9122 22.9587 23.7472 23.027 23.5751 23.027Z"
              fill="#004AAD"/>
        <path d="M32.8814 23.027H29.2541C29.0821 23.027 28.9171 22.9587 28.7955 22.837C28.6738 22.7154 28.6055 22.5504 28.6055 22.3784C28.6055 22.2064 28.6738 22.0414 28.7955 21.9197C28.9171 21.7981 29.0821 21.7297 29.2541 21.7297H32.8866C33.0586 21.7297 33.2236 21.7981 33.3452 21.9197C33.4669 22.0414 33.5352 22.2064 33.5352 22.3784C33.5352 22.5504 33.4669 22.7154 33.3452 22.837C33.2236 22.9587 33.0586 23.027 32.8866 23.027H32.8814Z"
              fill="#004AAD"/>
        <path d="M21.84 27.6006C21.7117 27.6006 21.5863 27.5625 21.4797 27.4912C21.373 27.42 21.2899 27.3187 21.2408 27.2002C21.1918 27.0817 21.1789 26.9513 21.2039 26.8254C21.2289 26.6996 21.2907 26.5841 21.3814 26.4934L23.9481 23.9267C24.0709 23.8113 24.2338 23.7483 24.4022 23.7509C24.5706 23.7535 24.7315 23.8216 24.8506 23.9407C24.9698 24.0598 25.038 24.2205 25.0407 24.389C25.0434 24.5574 24.9805 24.7203 24.8653 24.8432L22.2986 27.4099C22.2384 27.4703 22.1669 27.5182 22.0883 27.5509C22.0096 27.5836 21.9252 27.6005 21.84 27.6006Z"
              fill="#004AAD"/>
        <path d="M28.4205 21.0201C28.2923 21.0201 28.1669 20.982 28.0602 20.9107C27.9536 20.8394 27.8705 20.7382 27.8214 20.6196C27.7723 20.5011 27.7595 20.3707 27.7845 20.2449C27.8095 20.1191 27.8713 20.0036 27.962 19.9128L30.5286 17.3461C30.651 17.228 30.8148 17.1626 30.9849 17.1641C31.155 17.1656 31.3177 17.2338 31.4379 17.354C31.5582 17.4743 31.6264 17.637 31.6279 17.8071C31.6294 17.9771 31.564 18.141 31.4458 18.2633L28.8791 20.83C28.7575 20.9517 28.5926 21.02 28.4205 21.0201Z"
              fill="#004AAD"/>
    </symbol>

    <symbol id="medical" viewBox="0 0 48 48">
        <g clip-path="url(#clip0)">
            <path d="M44.518 9.80627C44.3665 8.78721 43.682 7.90971 42.7317 7.51615L25.1266 0.225492C24.4001 -0.0751641 23.6 -0.0751641 22.8736 0.225492L5.26843 7.51615C4.31809 7.90971 3.63362 8.78721 3.48212 9.80627C3.11246 12.2931 2.49278 18.8725 4.71521 26.2388C5.95121 30.3354 7.888 34.1054 10.4717 37.4441C13.5734 41.4521 17.6434 44.8793 22.569 47.6304C23.0103 47.8767 23.5052 48 24.0001 48C24.4949 48 24.9898 47.8767 25.4312 47.6303C30.3567 44.8792 34.4267 41.452 37.5284 37.4441C40.112 34.1053 42.0488 30.3353 43.2848 26.2387C45.5073 18.8725 44.8876 12.2931 44.518 9.80627ZM41.9401 25.8329C39.2994 34.5853 33.5147 41.5063 24.7463 46.4039C24.2863 46.6609 23.7144 46.661 23.2541 46.4039C14.4857 41.5064 8.70071 34.5853 6.06006 25.8329C3.91965 18.7385 4.5159 12.406 4.87159 10.0127C4.9509 9.47909 5.30893 9.01971 5.8059 8.81402L23.411 1.52337C23.601 1.44471 23.8006 1.40534 24.0002 1.40534C24.1997 1.40534 24.3993 1.44471 24.5893 1.52337L42.1944 8.81402C42.6914 9.0198 43.0493 9.47909 43.1285 10.0127C43.4843 12.4061 44.0805 18.7386 41.9401 25.8329Z"
                  fill="#004AAD"/>
            <path d="M39.0944 10.8166L32.2134 8.00837C31.854 7.86193 31.4442 8.03415 31.2977 8.39331C31.1513 8.75246 31.3235 9.16243 31.6827 9.30896L38.5636 12.1172C38.9169 12.2612 39.171 12.5813 39.227 12.9523C39.5112 14.8362 39.9874 19.821 38.2775 25.4061C36.1682 32.2957 31.5449 37.7453 24.5359 41.6034C24.2055 41.7852 23.7949 41.7852 23.4645 41.6034C16.4555 37.7453 11.8321 32.2958 9.72285 25.4061C8.01276 19.8211 8.48901 14.8363 8.77317 12.9523C8.82914 12.5812 9.08329 12.2612 9.43664 12.1172L23.5766 6.34656C23.8456 6.23668 24.1546 6.23659 24.4238 6.34656L28.6705 8.07971C29.0297 8.22615 29.4397 8.05384 29.5861 7.69478C29.7327 7.33562 29.5604 6.92565 29.2012 6.77912L24.9544 5.04596C24.3389 4.79481 23.6612 4.79499 23.0458 5.04596L8.90582 10.8166C8.09667 11.1467 7.51354 11.8849 7.38417 12.7428C7.08576 14.7216 6.58532 19.9568 8.37961 25.8173C9.37776 29.0777 10.9418 32.078 13.0283 34.735C15.5313 37.9224 18.8146 40.6472 22.7871 42.8339C23.1613 43.0398 23.5806 43.1428 24.0001 43.1428C24.4196 43.1427 24.8391 43.0398 25.2132 42.8339C29.1857 40.6473 32.469 37.9224 34.972 34.735C37.0584 32.078 38.6224 29.0776 39.6206 25.8173C41.4149 19.9567 40.9144 14.7215 40.6159 12.7428C40.4865 11.8848 39.9035 11.1467 39.0944 10.8166Z"
                  fill="#004AAD"/>
            <path d="M22.6003 32.5176H25.4C26.4022 32.5176 27.2176 31.7061 27.2176 30.7086V27.604C27.2176 27.3811 27.4028 27.1997 27.6305 27.1997H30.7595C31.7618 27.1997 32.5771 26.3882 32.5771 25.3908V22.613C32.5771 21.6155 31.7618 20.804 30.7595 20.804H27.6305C27.4028 20.804 27.2176 20.6226 27.2176 20.3997V17.295C27.2176 16.2976 26.4023 15.4861 25.4 15.4861H22.6003C21.5981 15.4861 20.7827 16.2975 20.7827 17.295V20.3997C20.7827 20.6226 20.5974 20.804 20.3698 20.804H17.2407C16.2385 20.804 15.4231 21.6155 15.4231 22.613V25.3908C15.4231 26.296 16.1026 27.0671 17.0036 27.1844C17.3885 27.235 17.7406 26.9631 17.7908 26.5786C17.8408 26.1939 17.5695 25.8416 17.1849 25.7915C16.9814 25.7649 16.8278 25.5927 16.8278 25.3909V22.6131C16.8278 22.3901 17.0131 22.2087 17.2407 22.2087H20.3698C21.372 22.2087 22.1874 21.3972 22.1874 20.3998V17.2951C22.1874 17.0722 22.3727 16.8908 22.6003 16.8908H25.4C25.6277 16.8908 25.8128 17.0721 25.8128 17.2951V20.3998C25.8128 21.3972 26.6282 22.2087 27.6304 22.2087H30.7594C30.9871 22.2087 31.1723 22.39 31.1723 22.6131V25.3909C31.1723 25.6137 30.9871 25.7951 30.7594 25.7951H27.6304C26.6282 25.7951 25.8128 26.6066 25.8128 27.6041V30.7087C25.8128 30.9317 25.6277 31.1131 25.4 31.1131H22.6003C22.3727 31.1131 22.1874 30.9318 22.1874 30.7087V27.6041C22.1874 26.6067 21.3721 25.7951 20.3698 25.7951C19.9819 25.7951 19.6674 26.1096 19.6674 26.4975C19.6674 26.8854 19.9819 27.1999 20.3698 27.1999C20.5974 27.1999 20.7827 27.3812 20.7827 27.6042V30.7088C20.7828 31.7061 21.5981 32.5176 22.6003 32.5176Z"
                  fill="#004AAD"/>
        </g>
        <defs>
            <clipPath id="clip0">
                <rect width="48" height="48" fill="white"/>
            </clipPath>
        </defs>
    </symbol>

    <symbol id="pharmacy" viewBox="0 0 48 48">
        <path d="M47.6389 5.32264C47.4103 5.14498 47.1126 5.08282 46.8323 5.15417L42.3721 6.28826C41.6558 6.47022 40.9181 6.56257 40.1794 6.56257H33.6339C31.5105 6.56257 29.7369 8.08609 29.4166 10.1853C29.2372 11.3619 28.243 12.2158 27.0529 12.2158H26.8134V10.2574C28.4303 9.29481 29.5164 7.52997 29.5164 5.51548C29.5165 2.47424 27.0422 0 24.0009 0C20.9596 0 18.4854 2.47424 18.4854 5.51548C18.4854 7.52997 19.5715 9.29481 21.1884 10.2574V12.2158H20.9489C19.7588 12.2158 18.7646 11.3619 18.5852 10.1853C18.2649 8.08609 16.4913 6.56257 14.3679 6.56257H7.82242C7.08367 6.56257 6.34596 6.47032 5.6298 6.28826L1.16947 5.15426C0.889349 5.08301 0.591506 5.14507 0.362944 5.32273C0.13457 5.50029 0.000976562 5.77348 0.000976562 6.06279C0.000976562 8.04175 0.764474 9.84521 2.01116 11.1963C2.03853 13.4715 3.11656 15.4973 4.78184 16.8122L5.66374 17.9908C7.67458 20.6785 10.8792 22.2831 14.236 22.2831C16.811 22.2831 19.2512 21.3779 21.1884 19.7192V23.0626H20.3476C17.0047 23.0626 14.2851 25.7823 14.2851 29.1251C14.2851 30.1466 14.5443 31.1568 15.0345 32.0467C15.2053 32.3568 15.5258 32.5321 15.8565 32.5321C16.0095 32.5321 16.1646 32.4946 16.308 32.4155C16.7615 32.1657 16.9266 31.5955 16.6768 31.142C16.3388 30.5284 16.16 29.831 16.16 29.1251C16.16 26.8161 18.0385 24.9376 20.3476 24.9376H21.1884V33.3125H18.9853C16.5126 33.3125 14.501 35.3242 14.501 37.7969C14.501 40.2696 16.5126 42.2813 18.9853 42.2813H21.5919C21.9169 44.0417 22.4368 45.7635 23.1511 47.4316C23.2987 47.7765 23.6377 48 24.0128 48H24.0145C24.3902 47.9993 24.7293 47.7744 24.876 47.4284L24.8944 47.3848C25.5936 45.7311 26.1023 44.0248 26.42 42.2813H27.4853C28.545 42.2813 29.4072 43.1434 29.4072 44.2031C29.4072 45.2629 28.545 46.125 27.4853 46.125H27.4216C26.904 46.125 26.4841 46.5448 26.4841 47.0625C26.4841 47.5802 26.904 48 27.4216 48H27.4853C29.5789 48 31.2822 46.2968 31.2822 44.2031C31.2822 42.1095 29.5789 40.4063 27.4853 40.4063H26.6866C26.7706 39.5836 26.8134 38.754 26.8134 37.9188V35.1875H27.4384C30.7812 35.1875 33.5008 32.4679 33.5008 29.1251C33.5008 25.7823 30.7812 23.0626 27.4384 23.0626H26.8134V19.7192C28.7507 21.378 31.1908 22.2831 33.7658 22.2831C37.1225 22.2831 40.3269 20.6785 42.3381 17.9908L43.22 16.8122C44.8853 15.4973 45.9633 13.4714 45.9906 11.1962C47.2374 9.84521 48.0008 8.04175 48.0008 6.06279C48.0008 5.77348 47.8672 5.50029 47.6389 5.32264ZM20.4462 17.8556C18.782 19.5016 16.5766 20.4081 14.236 20.4081C12.1507 20.4081 10.1369 19.6571 8.56107 18.3395C8.79638 18.3626 9.03479 18.375 9.2761 18.375H10.846C11.3637 18.375 11.7835 17.9552 11.7835 17.4375C11.7835 16.9198 11.3637 16.5 10.846 16.5H9.2761C6.90339 16.5 4.88505 14.9586 4.16609 12.825C5.19218 13.345 6.35074 13.6401 7.57755 13.6403L9.51657 13.6406H9.51666C10.0343 13.6406 10.4541 13.2209 10.4542 12.7032C10.4543 12.1855 10.0345 11.7657 9.51676 11.7656L7.57773 11.7653C4.85965 11.7649 2.57966 9.85271 2.01191 7.303L5.16799 8.10541C6.03499 8.3259 6.92805 8.43756 7.82242 8.43756H14.3679C15.5581 8.43756 16.5522 9.29143 16.7316 10.468C17.0519 12.5672 18.8255 14.0908 20.9489 14.0908H21.1884V17.1215L20.4462 17.8556ZM18.9853 40.4062C17.5465 40.4062 16.376 39.2356 16.376 37.7969C16.376 36.358 17.5465 35.1874 18.9853 35.1874H21.1884V37.8629C21.1884 38.7172 21.2333 39.5653 21.3211 40.4062H18.9853ZM24.9384 37.9187C24.9384 40.1016 24.6265 42.2439 24.0092 44.3137C23.3808 42.2267 23.0634 40.0662 23.0634 37.8629V35.1874H24.9384V37.9187ZM24.9384 33.3124H23.0634V10.9497C23.3683 11.0022 23.6812 11.0311 24.0009 11.0311C24.3206 11.0311 24.6335 11.0022 24.9384 10.9497V33.3124ZM27.4384 24.9375C29.7474 24.9375 31.6258 26.816 31.6258 29.125C31.6258 31.434 29.7474 33.3124 27.4384 33.3124H26.8134V24.9375H27.4384ZM24.0009 9.15596C21.9934 9.15596 20.3604 7.52285 20.3604 5.51548C20.3604 3.50811 21.9935 1.87499 24.0009 1.87499C26.0083 1.87499 27.6414 3.50811 27.6414 5.51548C27.6414 7.52285 26.0084 9.15596 24.0009 9.15596ZM40.4241 11.7653L38.4852 11.7656C37.9674 11.7657 37.5477 12.1855 37.5478 12.7032C37.5479 13.2209 37.9677 13.6407 38.4854 13.6406L40.4244 13.6403C41.6512 13.6401 42.8098 13.3451 43.8359 12.825C43.1169 14.9586 41.0985 16.5 38.7259 16.5H37.1559C36.6382 16.5 36.2184 16.9198 36.2184 17.4375C36.2184 17.9552 36.6382 18.375 37.1559 18.375H38.7258C38.9671 18.375 39.2054 18.3626 39.4407 18.3395C37.8648 19.6571 35.851 20.4081 33.7659 20.4081C31.4253 20.4081 29.2199 19.5016 27.5557 17.8556L26.8134 17.1215V14.0908H27.0529C29.1763 14.0908 30.9499 12.5672 31.2702 10.468C31.4496 9.29143 32.4437 8.43756 33.6339 8.43756H40.1794C41.0737 8.43756 41.9668 8.3259 42.8339 8.10541L45.9899 7.303C45.4221 9.85262 43.1421 11.7649 40.4241 11.7653Z"
              fill="#004AAD"/>
    </symbol>

    <symbol id="accident" viewBox="0 0 48 48">
        <path d="M47.2 44.397H0.8C0.3582 44.397 0 44.7552 0 45.197C0 45.6388 0.3582 45.997 0.8 45.997H47.2C47.6418 45.997 48 45.6388 48 45.197C48 44.7552 47.6418 44.397 47.2 44.397Z"
              fill="#004AAD"/>
        <path d="M14.139 36.3802C14.0449 36.0903 13.7943 35.879 13.4926 35.8354L11.2222 35.5058L10.2078 33.449C10.012 33.0529 9.53232 32.8905 9.13622 33.0862C8.97872 33.164 8.85132 33.2915 8.77342 33.449L7.75982 35.5058L5.48782 35.837C5.05092 35.9028 4.75012 36.3104 4.81592 36.7473C4.84162 36.9179 4.92182 37.0757 5.04452 37.197L6.68692 38.797L6.29982 41.0578C6.22542 41.4933 6.51822 41.9067 6.95372 41.981C7.12662 42.0105 7.30442 41.9824 7.45982 41.901L9.49022 40.8338L11.5198 41.905C11.9109 42.1106 12.3946 41.9603 12.6002 41.5692C12.6821 41.4135 12.7103 41.2352 12.6806 41.0618L12.2926 38.801L13.9358 37.201C14.1544 36.9885 14.2332 36.6702 14.139 36.3802ZM10.8798 37.9482C10.6912 38.1322 10.6053 38.3973 10.6502 38.657L10.8342 39.7346L9.86622 39.2258C9.63352 39.1037 9.35572 39.1037 9.12302 39.2258L8.15502 39.7346L8.33902 38.657C8.38392 38.3973 8.29802 38.1322 8.10942 37.9482L7.32622 37.1858L8.40782 37.0258C8.66842 36.988 8.89372 36.8243 9.01022 36.5882L9.49422 35.6074L9.97822 36.5874C10.0945 36.8238 10.3199 36.9878 10.5806 37.0258L11.6622 37.1858L10.8798 37.9482Z"
              fill="#004AAD"/>
        <path d="M39.9063 22.853L31.7687 14.717C31.4563 14.4047 30.9499 14.4047 30.6375 14.717L24.7999 20.5498L19.4543 15.2042C22.9831 14.6773 25.5959 11.6489 25.5999 8.08102V7.94422C25.5999 6.61872 24.5254 5.54422 23.1999 5.54422C21.8744 5.54422 20.7999 6.61872 20.7999 7.94422C20.7981 9.34482 19.6629 10.4797 18.2623 10.481C16.8572 10.4838 15.4635 10.732 14.1439 11.2146C14.9937 8.70352 13.6469 5.97902 11.1358 5.12932C8.62467 4.27962 5.90016 5.62632 5.05046 8.13742C4.20076 10.6485 5.54746 13.373 8.05856 14.2227C8.45496 14.3568 8.86717 14.4386 9.28467 14.4658L9.03987 14.717C5.63496 18.1223 5.63496 23.6429 9.03987 27.0482L9.34306 27.3514C10.3212 28.3234 11.9021 28.3185 12.8741 27.3404C13.3381 26.8735 13.5989 26.2424 13.5999 25.5842C13.6018 24.9216 13.3385 24.2858 12.8687 23.8186L12.5655 23.5154C11.3318 22.2776 11.122 20.3495 12.0607 18.8754L23.1871 29.997H16.7999C16.3581 29.997 15.9999 30.3552 15.9999 30.797C15.9999 31.2388 16.3581 31.597 16.7999 31.597H24.7839L25.5999 32.413V39.597C25.6009 40.1591 25.7502 40.711 26.0327 41.197H20.7999C20.3581 41.197 19.9999 41.5552 19.9999 41.997C19.9999 42.4388 20.3581 42.797 20.7999 42.797H28.7783H28.7999C30.5672 42.797 31.9999 41.3643 31.9999 39.597V29.677C31.9999 29.4648 31.9155 29.2614 31.7655 29.1114L28.3311 25.677L31.1999 22.813L35.5751 27.1842C36.7711 28.3802 38.7103 28.3802 39.9063 27.1842C41.1023 25.9882 41.1023 24.049 39.9063 22.853ZM6.39986 9.68102C6.39986 7.91372 7.83256 6.48102 9.59986 6.48102C11.3672 6.48102 12.7999 7.91372 12.7999 9.68102C12.7999 11.4483 11.3672 12.881 9.59986 12.881C7.83256 12.881 6.39986 11.4483 6.39986 9.68102ZM38.7619 26.0534C38.49 26.3227 38.1234 26.4747 37.7407 26.4769C37.353 26.476 36.9813 26.3222 36.7063 26.0489L31.7687 21.1169C31.4563 20.8046 30.9499 20.8046 30.6375 21.1169L26.6399 25.1169C26.3276 25.4293 26.3276 25.9357 26.6399 26.2481L30.3999 30.013V39.597C30.3999 40.4807 29.6836 41.197 28.7999 41.197C27.9162 41.197 27.1999 40.4807 27.1999 39.597V32.077C27.1999 31.8648 27.1155 31.6614 26.9655 31.5114L12.5655 17.1114C12.2531 16.7991 11.7467 16.7991 11.4343 17.1114C9.35736 19.1922 9.35736 22.5618 11.4343 24.6426L11.7375 24.9458C12.0879 25.2959 12.0881 25.8637 11.738 26.2141C11.5697 26.3826 11.3412 26.4772 11.1031 26.477C10.8653 26.4764 10.6374 26.3822 10.4687 26.2146L10.1655 25.9114C7.38516 23.1309 7.38516 18.6231 10.1655 15.8426L10.8687 15.1402C12.8252 13.1727 15.4876 12.0696 18.2623 12.077C20.5446 12.0748 22.3951 10.2265 22.3999 7.94422C22.3999 7.50242 22.7581 7.14422 23.1999 7.14422C23.6417 7.14422 23.9999 7.50242 23.9999 7.94422V8.08102C23.9964 11.1723 21.4912 13.6775 18.3999 13.681C17.9581 13.681 17.5999 14.0392 17.5999 14.481V15.281C17.5999 15.4932 17.6843 15.6966 17.8343 15.8466L24.2343 22.2466C24.5467 22.5589 25.0531 22.5589 25.3655 22.2466L31.1999 16.413L38.7719 23.9842C39.3405 24.5584 39.3361 25.4848 38.7619 26.0534Z"
              fill="#004AAD"/>
        <path d="M17.6 41.197H16C15.5582 41.197 15.2 41.5552 15.2 41.997C15.2 42.4388 15.5582 42.797 16 42.797H17.6C18.0418 42.797 18.4 42.4388 18.4 41.997C18.4 41.5552 18.0418 41.197 17.6 41.197Z"
              fill="#004AAD"/>
        <path d="M13.6 29.9971H12C11.5582 29.9971 11.2 30.3553 11.2 30.7971C11.2 31.2389 11.5582 31.5971 12 31.5971H13.6C14.0418 31.5971 14.4 31.2389 14.4 30.7971C14.4 30.3553 14.0418 29.9971 13.6 29.9971Z"
              fill="#004AAD"/>
        <path d="M47.2002 3.12233C47.1464 3.12233 47.0926 3.12773 47.0399 3.13853H47.0455C45.4394 3.46283 43.7699 3.17223 42.3679 2.32413L42.0168 2.11213C41.9947 2.10113 41.972 2.09123 41.9488 2.08253C41.9256 2.07133 41.9024 2.06173 41.8784 2.05213C41.7008 1.98653 41.5056 1.98653 41.328 2.05213C41.304 2.06173 41.2807 2.07133 41.2575 2.08253C41.2343 2.09123 41.2118 2.10113 41.1896 2.11213L40.8384 2.32413C39.4363 3.17273 37.7664 3.46343 36.16 3.13853C35.7271 3.05013 35.3044 3.32943 35.2161 3.76233C35.2053 3.81503 35.2 3.86873 35.2 3.92253V11.9785C35.2 13.1133 35.5068 14.227 36.088 15.2017C36.7592 16.3325 37.7722 17.2211 38.9808 17.7393L41.2832 18.7313C41.4839 18.8177 41.7113 18.8177 41.912 18.7313L44.2152 17.7393C45.4238 17.2211 46.4367 16.3325 47.1079 15.2017C47.6905 14.2274 47.9988 13.1137 48 11.9785V3.92253C48.0001 3.48073 47.642 3.12243 47.2002 3.12233ZM40.8032 16.7801L39.6168 16.2689C38.7178 15.8835 37.9643 15.2227 37.4648 14.3817C37.0323 13.6558 36.8037 12.8267 36.8032 11.9817V4.84173C38.1745 4.95083 39.5509 4.70943 40.8032 4.14013V16.7801ZM45.7415 14.3817C45.2422 15.223 44.4887 15.8841 43.5896 16.2697L42.4 16.7809V4.14013C43.6523 4.70933 45.0287 4.95083 46.4 4.84173L46.4032 11.9817C46.4027 12.8267 46.174 13.6558 45.7415 14.3817Z"
              fill="#004AAD"/>
    </symbol>

    <symbol id="shipped" viewBox="0 0 48 48">
        <path d="M44.6398 21.6903L43.3968 16.7183C43.7366 16.6461 43.9916 16.3446 43.9916 15.9834V15.1817C43.9916 13.4412 42.5755 12.0252 40.8351 12.0252H35.1733V10.3716C35.1733 9.51511 34.4766 8.81836 33.6201 8.81836H4.75987C3.90337 8.81836 3.20662 9.51511 3.20662 10.3716V24C3.20662 24.4151 3.54309 24.7516 3.95822 24.7516C4.37325 24.7516 4.70981 24.4152 4.70981 24V10.3716C4.70981 10.344 4.73222 10.3215 4.75987 10.3215H33.62C33.6476 10.3215 33.67 10.344 33.67 10.3716V24.0002C33.67 24.4153 34.0065 24.7518 34.4216 24.7518C34.8367 24.7518 35.1732 24.4154 35.1732 24.0002V23.1482H44.0391C44.0398 23.1482 44.0404 23.1484 44.041 23.1484C44.0418 23.1484 44.0424 23.1483 44.0431 23.1483C45.1341 23.1491 46.0604 23.8651 46.3786 24.8519H44.0416C43.6266 24.8519 43.29 25.1883 43.29 25.6035V27.2068C43.29 28.5053 44.3464 29.5617 45.6449 29.5617H46.4967V32.8685H44.5315C43.886 31.0045 42.114 29.6618 40.0332 29.6618C37.9524 29.6618 36.1804 31.0045 35.5349 32.8685H35.173V27.2067C35.173 26.7916 34.8366 26.4551 34.4214 26.4551C34.0064 26.4551 33.6698 26.7915 33.6698 27.2067V32.8683H18.0766C17.431 31.0043 15.6591 29.6616 13.5783 29.6616C11.4975 29.6616 9.72544 31.0043 9.07997 32.8683H4.75987C4.73222 32.8683 4.70981 32.8459 4.70981 32.8183V31.1648H7.96659C8.38163 31.1648 8.71819 30.8283 8.71819 30.4132C8.71819 29.9981 8.38172 29.6616 7.96659 29.6616H0.751594C0.336563 29.6616 0 29.9981 0 30.4132C0 30.8283 0.336469 31.1648 0.751594 31.1648H3.20672V32.8183C3.20672 33.6748 3.90347 34.3715 4.75997 34.3715H8.81972C8.81953 34.3882 8.81841 34.4048 8.81841 34.4216C8.81841 37.0462 10.9538 39.1814 13.5783 39.1814C16.2028 39.1814 18.3382 37.0462 18.3382 34.4216C18.3382 34.4047 18.337 34.3882 18.3368 34.3715H35.2747C35.2745 34.3882 35.2733 34.4048 35.2733 34.4216C35.2733 37.0462 37.4087 39.1814 40.0332 39.1814C42.6577 39.1814 44.7931 37.0462 44.7931 34.4216C44.7931 34.4047 44.792 34.3882 44.7918 34.3715H47.2483C47.6633 34.3715 47.9999 34.035 47.9999 33.6199V25.6033C48 23.624 46.5397 21.9795 44.6398 21.6903ZM35.1733 13.5283H40.8351C41.7468 13.5283 42.4885 14.27 42.4885 15.1817V15.2318H35.1733V13.5283ZM35.1733 21.6451V16.7349H41.8516L43.0792 21.6451H35.1733ZM13.5783 37.6785C11.7825 37.6785 10.3215 36.2176 10.3215 34.4218C10.3215 32.6259 11.7825 31.165 13.5783 31.165C15.3741 31.165 16.8351 32.6259 16.8351 34.4218C16.8351 36.2176 15.3741 37.6785 13.5783 37.6785ZM40.0334 37.6785C38.2376 37.6785 36.7766 36.2176 36.7766 34.4218C36.7766 32.6259 38.2376 31.165 40.0334 31.165C41.8292 31.165 43.2902 32.6259 43.2902 34.4218C43.2902 36.2176 41.8292 37.6785 40.0334 37.6785ZM46.4969 28.0585H45.6451C45.1754 28.0585 44.7933 27.6764 44.7933 27.2067V26.3549H46.4968V28.0585H46.4969Z"
              fill="#004AAD"/>
        <path d="M13.5782 32.8685C12.7217 32.8685 12.0249 33.5653 12.0249 34.4218C12.0249 35.2783 12.7217 35.975 13.5782 35.975C14.4347 35.975 15.1314 35.2783 15.1314 34.4218C15.1314 33.5653 14.4347 32.8685 13.5782 32.8685Z"
              fill="#004AAD"/>
        <path d="M40.0332 32.8685C39.1767 32.8685 38.48 33.5653 38.48 34.4218C38.48 35.2783 39.1767 35.975 40.0332 35.975C40.8897 35.975 41.5865 35.2783 41.5865 34.4218C41.5865 33.5653 40.8897 32.8685 40.0332 32.8685Z"
              fill="#004AAD"/>
        <path d="M31.2149 29.6617H19.9916C19.5766 29.6617 19.24 29.9982 19.24 30.4133C19.24 30.8285 19.5765 31.1649 19.9916 31.1649H31.2149C31.63 31.1649 31.9665 30.8285 31.9665 30.4133C31.9665 29.9982 31.6301 29.6617 31.2149 29.6617Z"
              fill="#004AAD"/>
        <path d="M11.9749 26.4551H2.35486C1.93983 26.4551 1.60327 26.7915 1.60327 27.2067C1.60327 27.6218 1.93974 27.9583 2.35486 27.9583H11.9749C12.39 27.9583 12.7265 27.6218 12.7265 27.2067C12.7265 26.7915 12.39 26.4551 11.9749 26.4551Z"
              fill="#004AAD"/>
        <path d="M26.1348 16.2535C25.8414 15.9601 25.3654 15.9601 25.072 16.2536L18.3883 22.9371L14.9114 19.4602C14.6179 19.1667 14.142 19.1667 13.8486 19.4602C13.555 19.7538 13.555 20.2295 13.8486 20.5231L17.8569 24.5314C18.0037 24.6783 18.196 24.7516 18.3883 24.7516C18.5806 24.7516 18.7731 24.6783 18.9197 24.5314L26.1347 17.3164C26.4282 17.0228 26.4282 16.547 26.1348 16.2535Z"
              fill="#004AAD"/>
    </symbol>

    <symbol id="bus" viewBox="0 0 48 40">
        <path d="M22.5423 26.7513C21.0864 26.7513 19.9019 27.9144 19.9019 29.344C19.9019 30.7736 21.0864 31.9367 22.5423 31.9367C23.9968 31.9367 25.1801 30.7736 25.1801 29.344C25.1801 27.9144 23.9968 26.7513 22.5423 26.7513ZM22.5423 30.5304C21.8618 30.5304 21.3081 29.9982 21.3081 29.344C21.3081 28.6898 21.8618 28.1576 22.5423 28.1576C23.2213 28.1576 23.7738 28.6898 23.7738 29.344C23.7738 29.9982 23.2213 30.5304 22.5423 30.5304Z"
              fill="#004AAD"/>
        <path d="M39.0135 31.9367C40.4694 31.9367 41.6539 30.7736 41.6539 29.344C41.6539 27.9144 40.4694 26.7513 39.0135 26.7513C37.559 26.7513 36.3757 27.9144 36.3757 29.344C36.3757 30.7736 37.559 31.9367 39.0135 31.9367ZM39.0135 28.1576C39.694 28.1576 40.2477 28.6898 40.2477 29.344C40.2477 29.9982 39.694 30.5304 39.0135 30.5304C38.3345 30.5304 37.782 29.9982 37.782 29.344C37.782 28.6898 38.3344 28.1576 39.0135 28.1576Z"
              fill="#004AAD"/>
        <path d="M46.9168 15.0927H44.6569V9.17046C44.6569 8.14821 43.8253 7.31665 42.8032 7.31665H32.4363C32.0479 7.31665 31.7332 7.63146 31.7332 8.01978C31.7332 8.40809 32.0479 8.7229 32.4363 8.7229H42.8032C43.0458 8.7229 43.2507 8.92793 43.2507 9.17046V13.328H18.3053V9.17046C18.3053 8.92784 18.5102 8.7229 18.7528 8.7229H29.2153C29.6038 8.7229 29.9185 8.40809 29.9185 8.01978C29.9185 7.63146 29.6038 7.31665 29.2153 7.31665H18.7528C17.7306 7.31665 16.899 8.14831 16.899 9.17046V15.0927H14.6391C14.0418 15.0927 13.5559 15.5773 13.5559 16.1731V22.2563C13.5559 22.8521 14.0418 23.3367 14.6391 23.3367H16.899V33.1602C16.899 33.9336 17.3754 34.5971 18.0496 34.8746V37.8242C18.0496 38.8317 18.8694 39.6515 19.8769 39.6515H22.5291C23.5366 39.6515 24.3563 38.8317 24.3563 37.8242V35.0141H36.7585V37.8242C36.7585 38.8317 37.5781 39.6515 38.5857 39.6515H41.6789C42.6865 39.6515 43.5062 38.8317 43.5062 37.8242V34.8746C44.1806 34.5971 44.6568 33.9336 44.6568 33.1602V23.3367H46.9167C47.514 23.3367 47.9999 22.8521 47.9999 22.2563V16.1731C48 15.5773 47.5141 15.0927 46.9168 15.0927ZM16.899 21.9305H14.9622V16.4988H16.899V21.9305ZM18.3053 22.6336V15.7957V14.7341H30.0748V23.6764H24.4828L25.7346 21.5802C25.9336 21.2467 25.8248 20.8151 25.4913 20.6159C25.1583 20.417 24.7264 20.5257 24.5272 20.8591L22.8449 23.6763H18.3053V22.6336ZM22.9501 37.8242C22.9501 38.0524 22.7573 38.2452 22.5292 38.2452H19.877C19.6487 38.2452 19.456 38.0524 19.456 37.8242V35.0141H22.9501V37.8242ZM27.3544 33.6078L28.7419 30.459H32.814L34.2036 33.6078H27.3544ZM42.1 37.8242C42.1 38.0524 41.9071 38.2452 41.6789 38.2452H38.5857C38.3575 38.2452 38.1647 38.0524 38.1647 37.8242V35.0141H42.1001V37.8242H42.1ZM43.2507 33.1602C43.2507 33.4029 43.0457 33.6078 42.8032 33.6078H35.7407L34.0986 29.8869C33.9991 29.6587 33.735 29.0528 33.0342 29.0528H28.5217C27.8208 29.0528 27.5567 29.6588 27.4584 29.8843L25.8177 33.6079H18.7528C18.5101 33.6079 18.3053 33.4029 18.3053 33.1603V25.0828C18.3053 25.0828 23.2429 25.0829 23.2434 25.0829C23.2438 25.0829 23.2443 25.0828 23.2448 25.0828H43.2507V33.1602ZM43.2507 15.7958V22.6337V23.6766H37.6081L38.8599 21.5803C39.0589 21.2469 38.9501 20.8152 38.6166 20.6161C38.2835 20.4172 37.8516 20.5259 37.6525 20.8593L35.9702 23.6765H31.481V14.7342H43.2507V15.7958ZM46.5938 21.9305H44.6569V16.4988H46.5938V21.9305Z"
              fill="#004AAD"/>
        <path d="M25.3977 11.028C25.3977 11.4163 25.7124 11.7311 26.1008 11.7311H35.612C36.0004 11.7311 36.3151 11.4163 36.3151 11.028C36.3151 10.6396 36.0004 10.3248 35.612 10.3248H26.1008C25.7125 10.3248 25.3977 10.6396 25.3977 11.028Z"
              fill="#004AAD"/>
        <path d="M11.3357 34.6496H7.62216V28.0885H8.58525C9.17513 28.0885 9.65503 27.6085 9.65503 27.0186V18.7616C9.65503 18.1717 9.17513 17.6917 8.58525 17.6917H7.62216V14.184H12.6593C13.3078 14.184 13.8354 13.6564 13.8354 13.0079V1.5247C13.8354 0.876136 13.3078 0.348511 12.6593 0.348511H8.45231C8.06391 0.348511 7.74919 0.663323 7.74919 1.05164C7.74919 1.43995 8.06391 1.75476 8.45231 1.75476H12.4291V12.7779H1.40625V1.75476H5.23153C5.61994 1.75476 5.93466 1.43995 5.93466 1.05164C5.93466 0.663323 5.61994 0.348511 5.23153 0.348511H1.17619C0.527625 0.348511 0 0.876136 0 1.5247V13.0079C0 13.6565 0.527625 14.1841 1.17619 14.1841H6.21591V17.6918H5.25009C4.66162 17.6918 4.18284 18.1717 4.18284 18.7617V27.0187C4.18284 27.6086 4.66153 28.0886 5.25009 28.0886H6.21591V34.6497H2.49956C1.12134 34.6496 0 35.7709 0 37.1492V38.5471C0 39.1561 0.495375 39.6515 1.10438 39.6515H12.731C13.34 39.6515 13.8353 39.156 13.8353 38.5471V37.1492C13.8353 35.7709 12.714 34.6496 11.3357 34.6496ZM5.58909 26.6822V19.0979H8.24878V26.6822H5.58909ZM12.4291 38.2453H1.40625V37.1492C1.40625 36.5463 1.89666 36.0558 2.49956 36.0558H11.3357C11.9386 36.0558 12.4291 36.5463 12.4291 37.1492V38.2453Z"
              fill="#004AAD"/>
        <path d="M9.22302 5.03638H4.6123C4.2239 5.03638 3.90918 5.35119 3.90918 5.7395C3.90918 6.12781 4.2239 6.44263 4.6123 6.44263H9.22302C9.61143 6.44263 9.92615 6.12781 9.92615 5.7395C9.92615 5.35119 9.61134 5.03638 9.22302 5.03638Z"
              fill="#004AAD"/>
        <path d="M9.22302 7.6886H4.6123C4.2239 7.6886 3.90918 8.00341 3.90918 8.39172C3.90918 8.78004 4.2239 9.09485 4.6123 9.09485H9.22302C9.61143 9.09485 9.92615 8.78004 9.92615 8.39172C9.92615 8.00341 9.61134 7.6886 9.22302 7.6886Z"
              fill="#004AAD"/>
    </symbol>

    <symbol id="crane" viewBox="0 0 48 48">
        <path d="M15.5295 39.5294H18.3531V42.353H15.5295V39.5294Z" fill="#004AAD"/>
        <path d="M22.5881 39.5294H25.4117V42.353H22.5881V39.5294Z" fill="#004AAD"/>
        <path d="M29.647 39.5294H32.4705V42.353H29.647V39.5294Z" fill="#004AAD"/>
        <path d="M36.7061 39.5294H39.5296V42.353H36.7061V39.5294Z" fill="#004AAD"/>
        <path d="M8.47046 39.5294H11.294V42.353H8.47046V39.5294Z" fill="#004AAD"/>
        <path d="M48 36.7059V33.8824C46.5565 33.8824 37.1972 33.8824 35.6991 33.8824L27.2591 28.6073C28.7024 27.5833 29.6471 25.9004 29.6471 24C29.6471 21.3735 27.8447 19.1601 25.4118 18.5316V15.5294H27.4083L32.6741 10.2636L29.2528 0H18.7471L15.3259 10.2636L20.5917 15.5294H22.5882V21.1765H24C25.5569 21.1765 26.8235 22.4431 26.8235 24C26.8235 25.5569 25.5569 26.8235 24 26.8235C22.4431 26.8235 21.1765 25.5569 21.1765 24H18.3529C18.3529 25.9004 19.2976 27.5833 20.741 28.6073L12.3009 33.8824C10.9094 33.8824 1.43002 33.8824 0 33.8824V36.7059H2.82353V45.1765H0V48H48V45.1765H45.1765V36.7059H48ZM18.5564 9.50108L20.7822 2.82353H27.2177L29.4435 9.50108L26.2388 12.7059H21.7612L18.5564 9.50108ZM24 29.9001L30.3715 33.8824H17.6285L24 29.9001ZM42.3529 45.1765H5.64706V36.7059H42.3529V45.1765Z"
              fill="#004AAD"/>
        <path d="M22.5881 7.05884H25.4117V9.88237H22.5881V7.05884Z" fill="#004AAD"/>
    </symbol>

    <symbol id="alarm" viewBox="0 0 48 48">
        <path d="M36.75 37.7129V24C36.75 16.9697 31.0304 11.25 24 11.25C16.9696 11.25 11.25 16.9697 11.25 24V37.7129C9.4575 38.289 8.15625 39.9716 8.15625 41.9531V48H39.8438V41.9531C39.8438 39.9716 38.5425 38.289 36.75 37.7129ZM14.0625 34.4062H33.9375V37.5H14.0625V34.4062ZM24 14.0625C29.4796 14.0625 33.9375 18.5205 33.9375 24V31.5938H14.0625V24C14.0625 18.5205 18.5204 14.0625 24 14.0625ZM37.0312 45.1875H10.9688V41.9531C10.9688 41.0485 11.7048 40.3125 12.6094 40.3125H35.3906C36.2952 40.3125 37.0312 41.0485 37.0312 41.9531V45.1875Z"
              fill="#004AAD"/>
        <path d="M22.5938 0H25.4062V6.75309H22.5938V0Z" fill="#004AAD"/>
        <path d="M29.449 7.2793L31.9611 1.01243L34.5711 2.05868L32.059 8.32555L29.449 7.2793Z" fill="#004AAD"/>
        <path d="M35.3464 10.5482L39.898 5.55768L41.9765 7.45331L37.4249 12.4438L35.3464 10.5482Z" fill="#004AAD"/>
        <path d="M13.4316 2.04175L16.0416 0.995498L18.5538 7.26237L15.9438 8.30862L13.4316 2.04175Z" fill="#004AAD"/>
        <path d="M6.03589 7.45203L8.11433 5.5564L12.6659 10.5469L10.5875 12.4426L6.03589 7.45203Z" fill="#004AAD"/>
        <path d="M22.5938 17.1562H25.4062V24.7812H22.5938V17.1562Z" fill="#004AAD"/>
        <path d="M22.5938 26.7188H25.4062V29.5312H22.5938V26.7188Z" fill="#004AAD"/>
    </symbol>


    <symbol id="court" viewBox="0 0 48 48">
        <path d="M46.7605 30.098H44.5557L40.4065 17.8805C42.3027 17.3122 43.6292 15.516 43.6152 13.537C43.5944 11.0874 41.5666 9.07232 39.1156 9.07232C37.5439 9.07138 36.0712 9.90753 35.261 11.2534C34.9085 11.839 34.2656 12.1958 33.5839 12.1769C33.4408 12.1735 33.2847 12.147 33.1067 12.0955L27.051 10.3481V8.54478L27.5756 7.40001C28.1416 6.16431 27.9749 4.73035 27.1402 3.65764L24.5758 0.362198C24.398 0.133619 24.1248 0 23.8353 0C23.5458 0 23.2725 0.133619 23.0947 0.362104L20.5305 3.65755C19.6957 4.73025 19.5289 6.16422 20.0951 7.40001L20.6196 8.54478V10.3479L14.5636 12.0954C13.7424 12.3324 12.8524 11.989 12.4094 11.2532C11.5616 9.84494 9.99293 9.00466 8.35131 9.0771C5.944 9.18388 4.0221 11.2264 4.05597 13.6353C4.08112 15.5975 5.43111 17.355 7.31594 17.895L3.32463 30.098H1.23936C0.721119 30.098 0.301025 30.5182 0.301025 31.0364V33.1821C0.301025 35.2438 1.9783 36.921 4.03983 36.921H13.3519C15.4134 36.921 17.0907 35.2438 17.0907 33.1821V31.0364C17.0907 30.5182 16.6706 30.098 16.1524 30.098H13.9476L9.86269 18.0696H20.6196V40.419H11.261C8.87293 40.419 6.93001 42.3618 6.93001 44.7499V47.0463C6.93001 47.5644 7.3501 47.9846 7.86834 47.9846H19.764C20.2823 47.9846 20.7024 47.5644 20.7024 47.0463C20.7024 46.5281 20.2823 46.1079 19.764 46.1079H8.80668V44.7499C8.80668 43.3966 9.90763 42.2957 11.261 42.2957H36.3655C37.7188 42.2957 38.8198 43.3966 38.8198 44.7499V46.1079H28.0145C27.4964 46.1079 27.0762 46.5281 27.0762 47.0463C27.0762 47.5644 27.4964 47.9846 28.0145 47.9846H39.758C40.2762 47.9846 40.6964 47.5644 40.6964 47.0463V44.7499C40.6964 42.3618 38.7534 40.419 36.3654 40.419H27.0509V18.0696H37.8668L33.9324 30.0979H31.8473C31.3291 30.0979 30.9089 30.5181 30.9089 31.0363V33.1821C30.9089 35.2437 32.5862 36.9209 34.6478 36.9209H43.9599C46.0215 36.9209 47.6987 35.2437 47.6987 33.1821V31.0363C47.6988 30.5181 47.2786 30.098 46.7605 30.098ZM36.4953 13.5709C36.4953 12.1889 37.6186 11.0111 39.0012 10.9518C40.487 10.8861 41.7598 12.1231 41.7384 13.6106C41.7174 15.0219 40.5298 16.1929 39.1173 16.1929C37.6716 16.1929 36.4953 15.0167 36.4953 13.5709ZM22.0114 4.8102L23.8353 2.46633L25.659 4.8102C26.0623 5.32844 26.1428 6.02131 25.8694 6.61838L25.5104 7.40189H22.1601L21.8012 6.61847C21.5276 6.02122 21.6081 5.32835 22.0114 4.8102ZM5.96295 13.9786C5.94794 13.8818 5.93818 13.7835 5.93396 13.6856C5.87269 12.27 6.99879 11.0252 8.4168 10.9524C9.89346 10.8789 11.1751 12.0897 11.1751 13.5709C11.1751 15.0167 9.99893 16.1929 8.55314 16.1929C7.24594 16.1929 6.15935 15.2315 5.96295 13.9786ZM15.214 33.1821C15.214 34.2089 14.3787 35.0443 13.3519 35.0443H4.03983C3.01301 35.0443 2.1777 34.209 2.1777 33.1821V31.9747H15.214V33.1821ZM5.29908 30.098L8.56975 20.0984L11.9656 30.0979H5.29908V30.098ZM12.2052 16.1929C12.6739 15.542 12.9726 14.7616 13.0372 13.9165C13.7115 14.103 14.4129 14.0924 15.0841 13.8986L20.6196 12.3013V16.193H12.2052V16.1929ZM22.4963 40.419V9.27837H25.1743V40.419H22.4963ZM27.051 12.3013L32.5863 13.8985C32.9213 13.9952 33.2333 14.0457 33.5399 14.0529C33.9142 14.0619 34.2817 14.013 34.6332 13.9157C34.6977 14.7613 34.9964 15.5419 35.4652 16.193H27.051V12.3013ZM39.1778 20.0984L42.5737 30.0979H35.907L39.1778 20.0984ZM45.8221 33.1821C45.8221 34.2089 44.9868 35.0443 43.96 35.0443H34.6479C33.6211 35.0443 32.7857 34.209 32.7857 33.1821V31.9747H45.8221V33.1821Z"
              fill="#004AAD"/>
        <path d="M24.7017 46.7054C24.3867 45.9486 23.2823 45.95 22.9686 46.7054C22.8158 47.0735 22.9193 47.515 23.2223 47.7749C23.5265 48.0357 23.9732 48.0737 24.3176 47.869C24.7113 47.635 24.8779 47.1279 24.7017 46.7054Z"
              fill="#004AAD"/>
    </symbol>


    <symbol id="car" viewBox="0 0 48 48">
        <g clip-path="url(#clip0)">
            <path d="M47.2955 12.7749C46.0265 12.7749 44.9941 11.7427 44.9941 10.4736C44.9941 10.0844 44.6787 9.76904 44.2896 9.76904C43.9004 9.76904 43.585 10.0844 43.585 10.4736C43.585 11.7426 42.5528 12.7749 41.2837 12.7749C40.8945 12.7749 40.5791 13.0903 40.5791 13.4795C40.5791 13.8686 40.8945 14.184 41.2837 14.184C42.5527 14.184 43.585 15.2164 43.585 16.4854C43.585 16.8745 43.9004 17.1899 44.2896 17.1899C44.6787 17.1899 44.9941 16.8745 44.9941 16.4854C44.9941 15.2164 46.0264 14.184 47.2955 14.184C47.6846 14.184 48 13.8686 48 13.4795C48 13.0903 47.6846 12.7749 47.2955 12.7749ZM44.2897 14.3124C44.0579 13.9928 43.7763 13.7112 43.4568 13.4795C43.7764 13.2477 44.058 12.9661 44.2897 12.6466C44.5214 12.9662 44.803 13.2477 45.1225 13.4795C44.8029 13.7112 44.5214 13.9929 44.2897 14.3124Z"
                  fill="#004AAD"/>
            <path d="M6.71626 12.7749C5.44735 12.7749 4.41488 11.7427 4.41488 10.4736C4.41488 10.0844 4.09941 9.76904 3.71035 9.76904C3.32129 9.76904 3.00582 10.0844 3.00582 10.4736C3.00582 11.7426 1.97335 12.7749 0.704444 12.7749C0.315381 12.7749 -8.7738e-05 13.0903 -8.7738e-05 13.4795C-8.7738e-05 13.8686 0.315381 14.184 0.704444 14.184C1.97335 14.184 3.00582 15.2164 3.00582 16.4854C3.00582 16.8745 3.32129 17.1899 3.71035 17.1899C4.09941 17.1899 4.41488 16.8745 4.41488 16.4854C4.41488 15.2164 5.44735 14.184 6.71626 14.184C7.10532 14.184 7.42079 13.8686 7.42079 13.4795C7.42079 13.0903 7.10532 12.7749 6.71626 12.7749ZM3.71035 14.3124C3.4786 13.9928 3.19707 13.7112 2.87747 13.4795C3.19716 13.2477 3.47869 12.9661 3.71035 12.6466C3.9421 12.9662 4.22363 13.2477 4.54322 13.4795C4.22372 13.7112 3.9421 13.9929 3.71035 14.3124Z"
                  fill="#004AAD"/>
            <path d="M27.7573 3.75731C26.0739 3.75731 24.7044 2.38791 24.7044 0.704438C24.7045 0.315375 24.3892 0 24 0C23.6109 0 23.2955 0.315375 23.2955 0.704531C23.2955 2.38791 21.9259 3.75741 20.2426 3.75741C19.8535 3.75741 19.5381 4.07278 19.5381 4.46194C19.5381 4.85109 19.8535 5.16647 20.2426 5.16647C21.9259 5.16647 23.2955 6.53597 23.2955 8.21934C23.2955 8.6085 23.6109 8.92388 24 8.92388C24.3892 8.92388 24.7045 8.6085 24.7045 8.21934C24.7045 6.53597 26.074 5.16647 27.7574 5.16647C28.1466 5.16647 28.4619 4.85109 28.4619 4.46194C28.4619 4.07278 28.1465 3.75731 27.7573 3.75731ZM24 5.81503C23.6517 5.27278 23.1891 4.81013 22.6467 4.46184C23.1891 4.11356 23.6517 3.65091 24 3.10866C24.3483 3.65091 24.8109 4.11356 25.3532 4.46184C24.8109 4.81013 24.3483 5.27278 24 5.81503Z"
                  fill="#004AAD"/>
            <path d="M38.6678 23.7655L35.9273 16.0007C35.7222 15.4197 35.1704 15.0293 34.5543 15.0293H13.2579C12.6416 15.0293 12.0899 15.4197 11.8849 16.0006L9.14438 23.7655C8.98519 24.2165 9.33113 24.7045 9.80869 24.7045H38.0034C38.232 24.7045 38.4464 24.5935 38.5784 24.4069C38.7105 24.2203 38.7439 23.9811 38.6678 23.7655ZM10.8044 23.2954L13.2135 16.4696C13.2199 16.4515 13.2385 16.4383 13.2578 16.4383H34.5543C34.5735 16.4383 34.5922 16.4515 34.5986 16.4697L37.0077 23.2954H10.8044Z"
                  fill="#004AAD"/>
            <path d="M37.4325 33.0646C34.9305 33.0646 32.9707 34.3643 32.9707 36.0235C32.9707 37.6827 34.9305 38.9824 37.4325 38.9824C39.9345 38.9824 41.8943 37.6827 41.8943 36.0235C41.8943 34.3643 39.9345 33.0646 37.4325 33.0646ZM37.4325 37.5734C35.6852 37.5734 34.3796 36.7551 34.3796 36.0235C34.3796 35.2919 35.6851 34.4736 37.4325 34.4736C39.1798 34.4736 40.4854 35.2919 40.4854 36.0235C40.4854 36.7551 39.1798 37.5734 37.4325 37.5734Z"
                  fill="#004AAD"/>
            <path d="M10.3796 33.0646C7.87763 33.0646 5.91778 34.3643 5.91778 36.0235C5.91778 37.6827 7.87763 38.9824 10.3796 38.9824C12.8816 38.9824 14.8415 37.6827 14.8415 36.0235C14.8415 34.3643 12.8816 33.0646 10.3796 33.0646ZM10.3796 37.5734C8.63241 37.5734 7.32675 36.7551 7.32675 36.0235C7.32675 35.2919 8.63231 34.4736 10.3796 34.4736C12.1269 34.4736 13.4325 35.2919 13.4325 36.0235C13.4325 36.7551 12.1269 37.5734 10.3796 37.5734Z"
                  fill="#004AAD"/>
            <path fill-rule="evenodd" clip-rule="evenodd"
                  d="M46.4501 22.544H42.6928C42.3696 22.544 42.0878 22.7641 42.0094 23.0777L41.5145 25.0572L38.0531 15.2504C37.5306 13.7698 36.1245 12.7749 34.5543 12.7749H13.2578C11.6876 12.7749 10.2816 13.7698 9.759 15.2505L6.29775 25.0573L5.80284 23.0777C5.72438 22.764 5.44256 22.544 5.11941 22.544H1.362C0.972938 22.544 0.657469 22.8594 0.657469 23.2486V26.2545C0.657469 26.6436 0.972938 26.959 1.362 26.959H5.25328L2.8515 30.3214C2.39944 30.9543 2.16047 31.7002 2.16047 32.4781V41.2838C2.16047 42.504 2.75269 43.5883 3.66459 44.2649L3.66403 44.275C3.6637 44.2799 3.66338 44.2847 3.66338 44.2896V46.544C3.66338 47.3469 4.31653 48 5.11931 48H9.62813C10.431 48 11.0841 47.3468 11.0841 46.544V44.9942H36.7279V46.544C36.7279 47.3469 37.381 48 38.1838 48H42.6926C43.4955 48 44.1486 47.3468 44.1486 46.544V44.2896C44.1486 44.2872 44.1485 44.2848 44.1484 44.2824C44.1482 44.28 44.1481 44.2775 44.1479 44.275L44.1473 44.2649C45.0593 43.5883 45.6515 42.504 45.6515 41.2838V32.4781C45.6515 31.7001 45.4124 30.9542 44.9603 30.3214L42.5586 26.959H46.4499C46.8391 26.959 47.1545 26.6436 47.1545 26.2545V23.2486C47.1546 22.8593 46.8393 22.544 46.4501 22.544ZM2.06653 25.5498V23.953H4.56928L4.96847 25.5498H2.06653ZM9.67519 46.544C9.67519 46.5699 9.65419 46.591 9.62822 46.591H5.11941C5.09353 46.591 5.07244 46.5699 5.07244 46.544V44.9942H5.87091H9.67519V46.544ZM42.7397 46.544C42.7397 46.5699 42.7186 46.591 42.6927 46.591H38.1839C38.158 46.591 38.1369 46.5699 38.1369 46.544V44.9942H41.9412H42.7397V46.544ZM41.9413 43.5851H5.87081C4.84753 43.5851 3.97847 42.9137 3.68016 41.9882L3.56944 40.5793V32.478C3.56944 31.9954 3.71766 31.5329 3.99806 31.1403L6.98484 26.9589H32.9236C33.3128 26.9589 33.6281 26.6435 33.6281 26.2544C33.6281 25.8652 33.3128 25.5498 32.9236 25.5498H7.61803L11.0876 15.7193C11.4118 14.801 12.2839 14.1839 13.2578 14.1839H34.5544C35.5282 14.1839 36.4003 14.8009 36.7246 15.7193L40.1941 25.5498H35.9295C35.5403 25.5498 35.225 25.8652 35.225 26.2544C35.225 26.6435 35.5403 26.9589 35.9295 26.9589H40.8273L43.8141 31.1403C44.0945 31.5329 44.2427 31.9954 44.2427 32.478V40.5793L44.1319 41.9882C43.8336 42.9137 42.9646 43.5851 41.9413 43.5851ZM16.4384 43.5851V35.2778C16.4384 33.232 18.1028 31.5675 20.1488 31.5675H27.6635C29.7093 31.5675 31.3738 33.2319 31.3738 35.2778V43.5851H16.4384ZM29.9648 35.9823V37.5792H17.8474V35.9823H29.9648ZM17.9581 34.5733C18.2564 33.6479 19.1254 32.9764 20.1488 32.9764H27.6635C28.6868 32.9764 29.5558 33.6479 29.8541 34.5733H17.9581ZM29.9648 38.9881V43.585H17.8474V38.9881H29.9648ZM45.7456 25.5498H42.8436L43.2428 23.953H45.7456V25.5498Z"
                  fill="#004AAD"/>
        </g>
        <defs>
            <clipPath id="clip0">
                <rect width="48" height="48" fill="white"/>
            </clipPath>
        </defs>
    </symbol>

    <symbol id="contract" viewBox="0 0 48 48">
        <path d="M37.4648 21.5184H10.6261C10.2488 21.5184 9.94296 21.8242 9.94296 22.2016C9.94296 22.5788 10.2488 22.8847 10.6261 22.8847H37.4648C37.8421 22.8847 38.1479 22.5788 38.1479 22.2016C38.1479 21.8243 37.8422 21.5184 37.4648 21.5184Z"
              fill="#004AAD"/>
        <path d="M23.3249 28.5675H10.6261C10.2488 28.5675 9.94296 28.8733 9.94296 29.2507C9.94296 29.6279 10.2488 29.9338 10.6261 29.9338H23.3249C23.7022 29.9337 24.008 29.6279 24.008 29.2507C24.008 28.8734 23.7023 28.5675 23.3249 28.5675Z"
              fill="#004AAD"/>
        <path d="M26.1029 42.6654H10.6261C10.2488 42.6654 9.94296 42.9712 9.94296 43.3486C9.94296 43.7259 10.2489 44.0317 10.6261 44.0317H26.1028C26.4802 44.0317 26.786 43.7259 26.786 43.3486C26.786 42.9712 26.4802 42.6654 26.1029 42.6654Z"
              fill="#004AAD"/>
        <path d="M22.3587 9.73999L16.6466 4.37384C16.3836 4.12681 15.974 4.1269 15.7113 4.37384L9.99899 9.7399C9.72393 9.99818 9.71043 10.4306 9.96871 10.7055C10.2273 10.9806 10.6596 10.994 10.9343 10.7357L16.1789 5.80906L21.4234 10.7357C21.5552 10.8596 21.7232 10.921 21.8909 10.921C22.073 10.921 22.2546 10.8487 22.389 10.7056C22.6473 10.4306 22.6339 9.99827 22.3587 9.73999Z"
              fill="#004AAD"/>
        <path d="M20.4487 10.6207L16.9523 7.33596C16.5188 6.92871 15.8394 6.92871 15.4059 7.33596L11.9095 10.6204C11.683 10.8329 11.5532 11.133 11.5532 11.4437V16.2218C11.5531 16.8445 12.0598 17.3511 12.6825 17.3511H19.6755C20.2982 17.3511 20.8048 16.8445 20.8048 16.2218V11.4437C20.8047 11.1332 20.675 10.8332 20.4487 10.6207ZM16.6798 15.9849H15.6779V13.6167H16.6798V15.9849ZM19.4384 15.9849H18.046V13.1839C18.046 12.6692 17.6273 12.2505 17.1127 12.2505H15.2451C14.7304 12.2505 14.3118 12.6692 14.3118 13.1839V15.9849H12.9193V11.5462H12.9192L16.1788 8.48411L19.4384 11.5462V15.9849Z"
              fill="#004AAD"/>
        <path d="M41.7903 19.4713C41.4129 19.4713 41.1071 19.7771 41.1071 20.1545V46.5812C41.1071 46.6102 41.0835 46.6338 41.0544 46.6338H6.94536C6.91639 46.6338 6.89268 46.6102 6.89268 46.5812V1.41881C6.89268 1.38984 6.9163 1.36622 6.94536 1.36622H30.1992V10.8307C30.1992 11.6266 30.8467 12.2741 31.6427 12.2741H41.1071V15.8635C41.107 16.2407 41.4128 16.5465 41.7902 16.5465C42.1675 16.5465 42.4733 16.2407 42.4733 15.8633V11.5909C42.4733 11.5831 42.4725 11.5755 42.4722 11.5678C42.4719 11.5601 42.4715 11.5525 42.4711 11.5449C42.4691 11.5158 42.4659 11.4868 42.4603 11.4584C42.4602 11.4581 42.4602 11.4578 42.4602 11.4576C42.4545 11.4286 42.4461 11.4004 42.4368 11.3725C42.4344 11.3654 42.4318 11.3585 42.4292 11.3514C42.4192 11.325 42.4083 11.2991 42.3951 11.2741C42.3945 11.2728 42.3939 11.2714 42.3933 11.2701C42.3794 11.244 42.3632 11.2191 42.3459 11.1949C42.3416 11.1888 42.3371 11.1828 42.3326 11.1769C42.3142 11.1529 42.2949 11.1295 42.2733 11.108L31.3654 0.200063C31.3438 0.1785 31.3205 0.159094 31.2965 0.140813C31.2905 0.136219 31.2844 0.131719 31.2782 0.127313C31.2541 0.110156 31.2292 0.0940313 31.2033 0.0801563C31.2017 0.0793125 31.2 0.0786562 31.1983 0.0778125C31.1736 0.0649687 31.1481 0.054 31.1221 0.04425C31.1149 0.0415312 31.1075 0.0389063 31.1002 0.0364688C31.0727 0.0271875 31.0447 0.0189375 31.016 0.0132188C31.0149 0.0130312 31.0138 0.0129375 31.0127 0.01275C30.9851 0.00740625 30.9572 0.0043125 30.929 0.00234375C30.9208 0.00178125 30.9127 0.00140625 30.9046 0.001125C30.8973 0.00084375 30.8898 0 30.8825 0H6.94536C6.16302 0 5.52655 0.636469 5.52655 1.41881V46.5812C5.52655 47.3635 6.16302 48 6.94546 48H41.0544C41.8368 48 42.4733 47.3635 42.4733 46.5812V20.1545C42.4734 19.7772 42.1676 19.4713 41.7903 19.4713ZM31.5655 2.33231L40.141 10.9078H31.6428C31.6002 10.9078 31.5655 10.8731 31.5655 10.8306V2.33231Z"
              fill="#004AAD"/>
        <path d="M39.9056 33.5057C39.7384 33.3324 39.7384 33.0611 39.9056 32.8879C40.3513 32.4264 40.5183 31.7809 40.3522 31.1612C40.1863 30.5415 39.719 30.066 39.1023 29.8892C38.8707 29.8228 38.7351 29.5878 38.7934 29.3541C38.9486 28.7316 38.7704 28.0892 38.3167 27.6355C37.863 27.1819 37.2205 27.0037 36.5981 27.159C36.3644 27.2176 36.1296 27.0816 36.0631 26.85C35.8863 26.2333 35.4107 25.766 34.791 25.6C34.171 25.4338 33.5258 25.601 33.0644 26.0466C32.8912 26.214 32.6197 26.2138 32.4466 26.0466C31.985 25.6008 31.3394 25.434 30.7199 25.6C30.1002 25.7661 29.6247 26.2334 29.448 26.8501C29.3815 27.0816 29.1467 27.2173 28.9129 27.159C28.2901 27.0038 27.6478 27.182 27.1942 27.6356C26.7405 28.0893 26.5625 28.7317 26.7176 29.3541C26.7759 29.5879 26.6402 29.8229 26.4088 29.8893C25.792 30.0661 25.3247 30.5416 25.1587 31.1613C24.9926 31.781 25.1595 32.4264 25.6053 32.888C25.7725 33.0612 25.7725 33.3325 25.6053 33.5058C25.1596 33.9672 24.9926 34.6127 25.1586 35.2324C25.3246 35.8521 25.7919 36.3276 26.4087 36.5045C26.6402 36.5708 26.7759 36.8059 26.7176 37.0394C26.5624 37.6618 26.7405 38.3044 27.1942 38.758C27.6478 39.2118 28.2904 39.39 28.9129 39.2346C28.9775 39.2187 29.0418 39.2187 29.1029 39.2301V45.1639C29.1029 45.4744 29.2764 45.7517 29.5555 45.8876C29.6686 45.9426 29.7892 45.9697 29.909 45.9697C30.0848 45.9697 30.2588 45.9114 30.4041 45.7975L32.7556 43.955L35.1069 45.7973C35.3512 45.9889 35.6765 46.0234 35.9557 45.8876C36.2348 45.7517 36.4083 45.4744 36.4083 45.1639V39.2301C36.4695 39.2187 36.5337 39.2187 36.5982 39.2347C37.2206 39.3898 37.8632 39.2118 38.3168 38.7581C38.7706 38.3045 38.9487 37.662 38.7935 37.0394C38.7352 36.8057 38.8707 36.5706 39.1023 36.5044C39.719 36.3275 40.1863 35.852 40.3523 35.2323C40.5184 34.6126 40.3514 33.9671 39.9056 33.5057ZM32.7554 42.4362C32.5803 42.4362 32.4052 42.4935 32.2592 42.608L30.4691 44.0106V40.7067C30.4728 40.7083 30.4767 40.7095 30.4804 40.7111C30.5075 40.7225 30.5351 40.7329 30.5629 40.7431C30.5746 40.7474 30.586 40.7522 30.5979 40.7562C30.638 40.7699 30.6786 40.7825 30.7199 40.7936C30.7277 40.7957 30.7355 40.7971 30.7432 40.799C30.7747 40.807 30.8062 40.8148 30.8377 40.8211C30.8472 40.823 30.8567 40.8241 30.8663 40.8259C30.8961 40.8313 30.9259 40.8367 30.9557 40.8407C30.9679 40.8423 30.98 40.843 30.9922 40.8444C31.0193 40.8475 31.0463 40.8506 31.0734 40.8525C31.0874 40.8534 31.1014 40.8534 31.1153 40.8541C31.1406 40.8552 31.1659 40.8565 31.1911 40.8566C31.1923 40.8566 31.1934 40.8567 31.1947 40.8567C31.1981 40.8567 31.2016 40.8562 31.2052 40.8562C31.2528 40.856 31.3002 40.8534 31.3474 40.8494C31.3593 40.8484 31.3712 40.8473 31.3831 40.8461C31.4341 40.8408 31.4847 40.8338 31.5349 40.8241C31.5377 40.8235 31.5403 40.8228 31.5431 40.8222C31.5908 40.8127 31.6377 40.8009 31.6844 40.7876C31.6958 40.7843 31.7074 40.781 31.7187 40.7776C31.7677 40.7626 31.816 40.7461 31.8637 40.727C31.8654 40.7262 31.8671 40.7254 31.8689 40.7246C31.9145 40.706 31.9592 40.685 32.0033 40.6625C32.0144 40.6569 32.0255 40.6512 32.0365 40.6453C32.0818 40.6211 32.1266 40.5955 32.17 40.5673C32.1711 40.5666 32.172 40.5659 32.173 40.5652C32.2153 40.5377 32.2563 40.5076 32.2965 40.4762C32.3069 40.4681 32.3171 40.46 32.3273 40.4516C32.368 40.4185 32.408 40.3842 32.4463 40.3472C32.6194 40.1799 32.8907 40.1798 33.0641 40.3472C33.0967 40.3786 33.1303 40.4083 33.1646 40.437C33.5955 40.7968 34.1588 40.9343 34.7094 40.8128C34.7365 40.8068 34.7636 40.8011 34.7907 40.7939C34.7929 40.7933 34.7948 40.7926 34.797 40.7919C34.8359 40.7813 34.8743 40.7696 34.9119 40.7567C34.9253 40.7521 34.9383 40.7467 34.9515 40.7419C34.9778 40.7322 35.0039 40.7225 35.0296 40.7117C35.0335 40.71 35.0378 40.7087 35.0417 40.707V44.0104L33.2519 42.608C33.1056 42.4934 32.9304 42.4362 32.7554 42.4362ZM38.9229 34.4545C39.0806 34.6178 39.0522 34.8053 39.0326 34.8785C39.0131 34.9517 38.944 35.1285 38.7258 35.191C37.7831 35.4613 37.2305 36.4184 37.4678 37.3699C37.5228 37.5902 37.4044 37.7384 37.3507 37.7918C37.2973 37.8454 37.1486 37.9639 36.9288 37.9089C36.0775 37.6967 35.2235 38.1174 34.8591 38.8831C34.8459 38.9105 34.8333 38.938 34.8215 38.966C34.8142 38.9834 34.807 39.0008 34.8003 39.0185C34.7816 39.0672 34.7642 39.1165 34.7498 39.1669C34.7315 39.2306 34.703 39.2804 34.6706 39.3212C34.6199 39.3851 34.5592 39.425 34.5083 39.4482C34.4804 39.4609 34.4558 39.4688 34.4375 39.4737C34.4042 39.4826 34.3467 39.4925 34.2792 39.4868C34.1983 39.4799 34.1026 39.4501 34.0134 39.364C33.3078 38.6828 32.2028 38.6828 31.4975 39.364C31.4804 39.3805 31.4629 39.3939 31.4454 39.4066C31.4421 39.409 31.4388 39.4125 31.4354 39.4148C31.4317 39.4174 31.428 39.4188 31.4243 39.4212C31.3931 39.4411 31.3621 39.4553 31.3316 39.4656C31.2705 39.4863 31.2129 39.4908 31.165 39.4879C31.1273 39.4855 31.095 39.4795 31.0734 39.4738C31.0004 39.4542 30.8237 39.3852 30.7612 39.1669C30.7484 39.1225 30.7336 39.0789 30.7176 39.0358C30.7103 39.0162 30.7022 38.9973 30.6944 38.978C30.686 38.9576 30.6775 38.9371 30.6683 38.917C30.656 38.8895 30.6428 38.8625 30.6291 38.8358C30.6251 38.8282 30.6211 38.8206 30.6171 38.813C30.3038 38.222 29.6917 37.854 29.0264 37.854C28.88 37.854 28.731 37.8718 28.5822 37.9088C28.3618 37.964 28.2136 37.8454 28.1602 37.7917C28.1067 37.7383 27.9882 37.5901 28.0432 37.3697C28.2803 36.4182 27.7278 35.4611 26.7852 35.1908C26.5669 35.1282 26.4978 34.9515 26.4782 34.8785C26.4586 34.8054 26.4302 34.6178 26.5879 34.4545C27.2692 33.7491 27.2692 32.6439 26.5879 31.9386C26.4302 31.7752 26.4586 31.5876 26.4782 31.5145C26.4978 31.4414 26.5669 31.2648 26.7852 31.2021C27.7278 30.932 28.2804 29.9749 28.0432 29.0232C27.9882 28.803 28.1066 28.6548 28.1602 28.6013C28.2136 28.5478 28.362 28.4293 28.5822 28.4843C29.5338 28.7214 30.4908 28.169 30.7612 27.2263C30.8237 27.0081 31.0003 26.939 31.0734 26.9194C31.1464 26.8999 31.3341 26.8713 31.4975 27.029C32.2027 27.7101 33.3079 27.7103 34.0134 27.029C34.1768 26.8713 34.3643 26.8997 34.4374 26.9193C34.5105 26.9389 34.6872 27.008 34.7498 27.2262C35.0199 28.1689 35.977 28.7215 36.9286 28.4842C37.1485 28.4291 37.2972 28.5477 37.3507 28.6012C37.4042 28.6548 37.5227 28.8029 37.4678 29.0232C37.2305 29.9748 37.783 30.9319 38.7257 31.2021C38.9439 31.2647 39.013 31.4414 39.0326 31.5145C39.0522 31.5876 39.0806 31.7751 38.9229 31.9386C38.2416 32.6439 38.2416 33.7491 38.9229 34.4545Z"
              fill="#004AAD"/>
        <path d="M36.0799 29.8722C34.2467 28.039 31.264 28.0391 29.4309 29.8722C27.5978 31.7053 27.5978 34.688 29.4309 36.5211C30.3475 37.4377 31.5515 37.8959 32.7555 37.8959C33.9594 37.8959 35.1633 37.4377 36.0798 36.5211C36.0799 36.5211 36.0799 36.5211 36.0799 36.5211C37.9131 34.688 37.9131 31.7053 36.0799 29.8722ZM35.1138 35.5551C33.8134 36.8554 31.6975 36.8555 30.3971 35.5551C29.0966 34.2547 29.0966 32.1387 30.3971 30.8383C31.0473 30.1881 31.9014 29.863 32.7556 29.863C33.6096 29.863 34.4637 30.1881 35.1139 30.8383C36.4143 32.1387 36.4143 34.2546 35.1138 35.5551Z"
              fill="#004AAD"/>
        <path d="M23.4079 35.6165H17.117C16.7396 35.6165 16.4338 35.9223 16.4338 36.2996C16.4338 36.677 16.7396 36.9828 17.117 36.9828H23.4079C23.7852 36.9828 24.091 36.677 24.091 36.2996C24.091 35.9223 23.7852 35.6165 23.4079 35.6165Z"
              fill="#004AAD"/>
        <path d="M12.8727 35.6166H10.6793C10.3019 35.6166 9.99609 35.9224 9.99609 36.2997C9.99609 36.6771 10.3019 36.9829 10.6793 36.9829H12.8727C13.2501 36.9829 13.5559 36.6771 13.5559 36.2997C13.5559 35.9224 13.2501 35.6166 12.8727 35.6166Z"
              fill="#004AAD"/>
    </symbol>

    <symbol id="shop" viewBox="0 0 48 48">
        <path d="M41.0839 34.1694H34.5755V44.7457H41.0839V34.1694ZM39.4568 43.1186H36.2026V35.7966H39.4568V43.1186Z"
              fill="#004AAD"/>
        <path d="M26.4399 26.8474H6.91443C5.56647 26.8474 4.47375 27.9401 4.47375 29.2881V44.7457H28.8805V29.2881C28.8805 27.9401 27.7878 26.8474 26.4399 26.8474ZM27.2534 43.1186H6.10087V32.5423H27.2534V43.1186ZM27.2534 30.9152H6.10087V29.2881C6.10087 28.8388 6.46514 28.4745 6.91443 28.4745H26.4399C26.8891 28.4745 27.2534 28.8388 27.2534 29.2881V30.9152Z"
              fill="#004AAD"/>
        <path d="M47.5363 11.1124C47.5281 11.0896 47.52 11.0677 47.5102 11.0457C47.5005 11.0237 47.4989 11.0107 47.4899 10.9953L43.5246 3.85708V0.813559C43.5246 0.364271 43.1603 0 42.7111 0H4.47376C4.02447 0 3.6602 0.364271 3.6602 0.813559V3.89532L0.475932 11.0595V11.0668C0.475932 11.0758 0.47105 11.0864 0.466983 11.0953C0.435356 11.1783 0.417762 11.2661 0.414915 11.3548C0.414915 11.3671 0.407593 11.3776 0.407593 11.3898V48H47.5924V11.3898C47.5924 11.3849 47.5924 11.3801 47.5924 11.3752C47.5888 11.2851 47.5697 11.1962 47.5363 11.1124ZM45.3958 10.5763H35.9756L34.0776 4.88136H42.2327L45.3958 10.5763ZM34.5755 12.2034V20.339C34.5755 22.1362 33.1185 23.5932 31.3212 23.5932H28.067C26.2697 23.5932 24.8127 22.1362 24.8127 20.339V19.5254V12.2034H34.5755ZM24.8127 10.5763V4.88136H32.3618L34.2598 10.5763H24.8127ZM5.28732 1.62712H41.8975V3.25424H5.28732V1.62712ZM13.7386 10.5763L15.6366 4.88136H23.1856V10.5763H13.7386ZM23.1856 12.2034V19.5254C23.183 21.7708 21.3633 23.5906 19.1178 23.5932H17.4907C15.2453 23.5906 13.4256 21.7708 13.4229 19.5254V12.2034H23.1856ZM5.00258 4.88136H13.9208L12.0228 10.5763H2.47159L5.00258 4.88136ZM2.03308 12.2034H11.7958V19.2C11.7932 21.6252 9.8278 23.5906 7.40258 23.5932H6.10088C3.85546 23.5906 2.03573 21.7708 2.03308 19.5254V12.2034ZM42.7111 46.3729H32.9483V32.5424H42.7111V46.3729ZM42.7111 30.9153H32.9483V29.939C32.9483 29.1302 33.604 28.4746 34.4128 28.4746H41.2467C42.0554 28.4746 42.7111 29.1302 42.7111 29.939V30.9153ZM45.9653 46.3729H44.3382V29.939C44.3382 28.2316 42.954 26.8475 41.2467 26.8475H34.4128C32.7054 26.8475 31.3212 28.2316 31.3212 29.939V46.3729H2.03308V23.5029C3.10149 24.6012 4.56864 25.2207 6.10088 25.2203H7.40258C9.50227 25.2181 11.4487 24.1209 12.5378 22.3257C13.5467 24.1124 15.4388 25.2182 17.4907 25.2203H19.1178C20.9992 25.2189 22.7585 24.2884 23.8186 22.7341C24.6826 24.2685 26.306 25.2185 28.067 25.2203H31.3212C33.0822 25.2185 34.7056 24.2685 35.5696 22.7341C36.6297 24.2884 38.389 25.2189 40.2704 25.2203H41.8975C43.4297 25.2207 44.8969 24.6012 45.9653 23.5029V46.3729ZM45.9653 19.5254C45.9627 21.7708 44.1429 23.5906 41.8975 23.5932H40.2704C38.025 23.5906 36.2052 21.7708 36.2026 19.5254V12.2034H45.9653V19.5254Z"
              fill="#004AAD"/>
    </symbol>

    <symbol id="wallet" viewBox="0 0 48 48">
        <g clip-path="url(#clip0)">
            <path d="M47.2424 7.95704L45.8024 0.696238C45.7163 0.262838 45.2953 -0.0186618 44.8619 0.0673382C44.8618 0.0673382 44.8617 0.0673382 44.8616 0.0674382L5.2248 7.94824H4C3.5582 7.94824 3.2 8.30644 3.2 8.74824V12.8282C1.3353 13.205 -0.00410206 14.8458 -2.05711e-06 16.7482V43.9482C0.00259794 46.1562 1.792 47.9456 4 47.9482H47.2C47.6418 47.9482 48 47.59 48 47.1482V8.74824C47.996 8.32584 47.6642 7.97934 47.2424 7.95704ZM44.3872 1.79304L45.6096 7.94824H13.4296L44.3872 1.79304ZM2.2936 15.0506L2.2976 15.0538C2.553 14.8004 2.8611 14.6065 3.2 14.4858V19.0018C3.1824 18.9962 3.1648 18.9922 3.1472 18.9858C3.0439 18.9447 2.9437 18.8963 2.8472 18.841C2.7992 18.8146 2.748 18.7938 2.7016 18.761C2.5578 18.6705 2.4238 18.5654 2.3016 18.4474C1.3639 17.5105 1.3603 15.9918 2.2936 15.0506ZM46.4 36.7482H35.2V30.3482H46.4V36.7482ZM46.4 28.7482H34.4C33.9582 28.7482 33.6 29.1064 33.6 29.5482V37.5482C33.6 37.99 33.9582 38.3482 34.4 38.3482H46.4V46.3482H4C2.6745 46.3482 1.6 45.2737 1.6 43.9482V19.9482C1.636 19.9754 1.676 19.9938 1.7128 20.0194C1.7832 20.069 1.856 20.1114 1.9288 20.1562C2.0635 20.2385 2.203 20.3127 2.3464 20.3786C2.4264 20.4146 2.5064 20.4498 2.5864 20.4802C2.7403 20.5377 2.8977 20.5852 3.0576 20.6226C3.132 20.641 3.204 20.6642 3.2792 20.6778C3.5168 20.723 3.7581 20.7466 4 20.7482H46.4V28.7482ZM20.0568 19.1482C20.4962 16.0868 23.3341 13.9612 26.3956 14.4006C28.8566 14.7538 30.79 16.6873 31.1432 19.1482H20.0568ZM46.4 19.1482H32.7528C32.2982 15.1978 28.7273 12.3639 24.7769 12.8185C21.4524 13.2011 18.8297 15.8237 18.4472 19.1482H4.8V9.54824H46.4V19.1482Z"
                  fill="#004AAD"/>
            <path d="M44 11.1482H39.2V12.7482H43.2V16.7482H44.8V11.9482C44.8 11.5063 44.4418 11.1482 44 11.1482Z"
                  fill="#004AAD"/>
            <path d="M7.2 11.1482C6.7582 11.1482 6.4 11.5064 6.4 11.9482V16.7482H8V12.7482H12V11.1482H7.2Z"
                  fill="#004AAD"/>
            <path d="M38.4 32.7482H36.8V34.3482H38.4V32.7482Z" fill="#004AAD"/>
        </g>
        <defs>
            <clipPath id="clip0">
                <rect width="48" height="48" fill="white"/>
            </clipPath>
        </defs>
    </symbol>

    <symbol id="debit-card" viewBox="0 0 48 48">
        <path d="M40 8.4752V4C39.9972 1.792 38.208 0.0028 36 0H4C1.792 0.0028 0.0028 1.792 0 4V21.6C0.00620001 23.643 1.5548 25.3516 3.5872 25.5588L6.5944 33.365C7.3888 35.4262 9.7036 36.453 11.765 35.6596L30.544 28.4256C29.2464 31.815 29.6156 35.6172 31.5404 38.6938L32 39.4288V47.2C32 47.642 32.358 48 32.8 48H47.2C47.642 48 48 47.642 48 47.2V20.793C47.9924 18.0264 46.891 15.3756 44.935 13.419L40 8.4752ZM40 13.2596L42.428 19.5624C42.9038 20.7996 42.2872 22.1878 41.0502 22.664L39.6624 23.2C39.884 22.6956 39.9988 22.1504 40 21.6V13.2596ZM1.6 21.6V4C1.6 2.6748 2.6748 1.6 4 1.6H36C37.3252 1.6 38.4 2.6748 38.4 4V9.0848H38.393L38.4 9.103V21.6C38.3938 21.7396 38.3756 21.878 38.3456 22.0144L31.0176 14.6856C29.3704 13.0764 26.7444 13.064 25.0824 14.6564C23.42 16.2498 23.3202 18.8738 24.8576 20.5878L27.9816 24H4C2.6748 24 1.6 22.9252 1.6 21.6ZM11.8488 25.6L6.16 27.7902L5.3184 25.6H11.8488ZM11.1896 34.1662C9.9528 34.643 8.5638 34.0264 8.0872 32.7896L6.7376 29.28L16.2872 25.6V25.5952H29.448L30.4878 26.7288L11.1896 34.1662ZM46.4 46.4H33.6V40H46.4V46.4ZM46.4 38.4H33.244L32.897 37.8456C30.9464 34.7284 30.8688 30.7912 32.6944 27.6C32.8672 27.298 32.8248 26.9188 32.5896 26.6624L26.0338 19.5104C25.0562 18.4404 25.1112 16.7862 26.1578 15.784C27.2048 14.7816 28.8598 14.798 29.8862 15.8204L42.6344 28.5656L43.7656 27.4344L40.8056 24.4744L41.6264 24.1544C43.686 23.3598 44.7124 21.047 43.92 18.9862L41.2122 11.955L43.8038 14.552C45.4598 16.2076 46.3936 18.4512 46.4 20.793V38.4Z"
              fill="#004AAD"/>
        <path d="M9.11998 11.2C10.2688 11.2 11.2 10.2688 11.2 9.11995V5.27995C11.2 4.13115 10.2688 3.19995 9.11998 3.19995H5.27998C4.13118 3.19995 3.19998 4.13115 3.19998 5.27995V9.11995C3.19998 10.2688 4.13118 11.2 5.27998 11.2H9.11998ZM4.79998 9.11995V7.99995H6.39998V6.39995H4.79998V5.27995C4.79998 5.01495 5.01498 4.79995 5.27998 4.79995H9.11998C9.38498 4.79995 9.59998 5.01495 9.59998 5.27995V6.39995H7.99998V7.99995H9.59998V9.11995C9.59998 9.38495 9.38498 9.59995 9.11998 9.59995H5.27998C5.01498 9.59995 4.79998 9.38495 4.79998 9.11995Z"
              fill="#004AAD"/>
        <path d="M4 13.6H7.2V15.2H4V13.6Z" fill="#004AAD"/>
        <path d="M4 18.4H7.2V20H4V18.4Z" fill="#004AAD"/>
        <path d="M18.4 18.4H21.6V20H18.4V18.4Z" fill="#004AAD"/>
        <path d="M8.79999 13.6H12V15.2H8.79999V13.6Z" fill="#004AAD"/>
        <path d="M13.6 13.6H16.8V15.2H13.6V13.6Z" fill="#004AAD"/>
        <path d="M18.4 13.6H21.6V15.2H18.4V13.6Z" fill="#004AAD"/>
        <path d="M33.6 4H35.2V6.39999H33.6V4Z" fill="#004AAD"/>
        <path d="M30.4 4H32V6.39999H30.4V4Z" fill="#004AAD"/>
        <path d="M27.2 4H28.8V6.39999H27.2V4Z" fill="#004AAD"/>
        <path d="M24 4H25.6V6.39999H24V4Z" fill="#004AAD"/>
        <path d="M35.2 41.6H36.8V43.2H35.2V41.6Z" fill="#004AAD"/>
    </symbol>

    <symbol id="union" viewBox="0 0 12 12">
        <path fill-rule="evenodd" clip-rule="evenodd"
              d="M4 0H3V2H1H0V3V11V12H1H11H12V11V3V2H11H9V0H8V2H4V0ZM8 3H4V5H3V3H1V11H11V3H9V5H8V3ZM3 7H4V8H3V7ZM7 7H5V8H7V7ZM8 7H9V8H8V7Z"
              fill="#BBBBAF"/>
    </symbol>

    <symbol id="close" viewBox="0 0 26 26">
        <path fill-rule="evenodd" clip-rule="evenodd"
              d="M20.0711 7.34304L18.6569 5.92883L13 11.5857L7.34315 5.92883L5.92893 7.34304L11.5858 12.9999L5.92893 18.6567L7.34315 20.071L13 14.4141L18.6569 20.071L20.0711 18.6567L14.4142 12.9999L20.0711 7.34304Z"/>
    </symbol>

    <symbol id="burger" viewBox="0 0 18 12">
        <path fill-rule="evenodd" clip-rule="evenodd" d="M0 0H18V2H0V0ZM0 5H18V7H0V5ZM18 10H0V12H18V10Z"/>
    </symbol>


    <symbol id="location" viewBox="0 0 16 24">
        <path d="M8 11.4962C10.1694 11.4962 11.9343 9.73151 11.9343 7.56241C11.9343 5.39332 10.1694 3.62866 8 3.62866C5.83063 3.62866 4.06569 5.39332 4.06569 7.56241C4.06569 9.73151 5.83063 11.4962 8 11.4962ZM8 5.03472C9.39397 5.03472 10.5281 6.16868 10.5281 7.56241C10.5281 8.95619 9.39402 10.0901 8 10.0901C6.60599 10.0901 5.47194 8.95619 5.47194 7.56241C5.47194 6.16868 6.60603 5.03472 8 5.03472Z"/>
        <path d="M3.71619 14.6311C4.78189 16.0738 4.35374 15.5128 7.42335 19.8953C7.70235 20.2952 8.29564 20.2971 8.57624 19.896C11.6597 15.4926 11.2355 16.0503 12.2838 14.6311C13.3458 13.1933 14.444 11.7067 15.0457 9.9645C15.9167 7.44258 15.5402 4.94728 13.9857 2.93822C13.9857 2.93822 13.9857 2.93817 13.9856 2.93817C12.5616 1.09837 10.324 0 8 0C5.67599 0 3.43836 1.09837 2.01434 2.93827C0.459828 4.94733 0.0833274 7.44267 0.954359 9.96459C1.55605 11.7067 2.65424 13.1934 3.71619 14.6311ZM3.1265 3.7987C4.2861 2.30053 6.10799 1.40606 8 1.40606C9.89202 1.40606 11.7139 2.30053 12.8735 3.7987L12.8734 3.79866C14.1281 5.42016 14.4275 7.44694 13.7165 9.50559C13.1849 11.0444 12.1518 12.4431 11.1526 13.7958C10.3747 14.8489 10.6075 14.5268 8 18.2645C5.39521 14.5305 5.62508 14.8486 4.84738 13.7958C3.84824 12.4431 2.81506 11.0444 2.28355 9.50559C1.57255 7.44689 1.87189 5.42016 3.1265 3.7987Z"/>
        <path d="M4.29369 17.6797C4.08631 17.3515 3.65206 17.2534 3.32375 17.4608L1.32453 18.7235C0.888403 18.9989 0.887981 19.6365 1.32453 19.9122L7.62453 23.8914C7.85389 24.0363 8.1462 24.0362 8.37552 23.8914L14.6755 19.9122C15.1117 19.6368 15.1121 18.9992 14.6755 18.7235L12.6763 17.4608C12.3479 17.2534 11.9137 17.3515 11.7064 17.6797C11.4989 18.008 11.597 18.4422 11.9253 18.6496L12.9835 19.3179L8 22.4654L3.01658 19.3179L4.07473 18.6496C4.40305 18.4422 4.50106 18.008 4.29369 17.6797Z"/>
    </symbol>

    <symbol id="phone" viewBox="0 0 24 24">
        <path d="M18.9676 14.8674C18.4762 14.3558 17.8836 14.0822 17.2555 14.0822C16.6324 14.0822 16.0347 14.3507 15.5231 14.8623L13.9225 16.4579C13.7908 16.387 13.6591 16.3211 13.5324 16.2553C13.3501 16.1641 13.1779 16.078 13.031 15.9868C11.5316 15.0345 10.169 13.7935 8.86216 12.1878C8.22899 11.3875 7.8035 10.7138 7.49452 10.0299C7.90988 9.65004 8.29484 9.25494 8.66968 8.87504C8.81151 8.7332 8.95334 8.58631 9.09517 8.44448C10.1589 7.38075 10.1589 6.00297 9.09517 4.93925L7.71233 3.5564C7.5553 3.39938 7.39321 3.23729 7.24125 3.07519C6.93733 2.76114 6.61821 2.43696 6.28896 2.13304C5.79762 1.64676 5.21004 1.38843 4.59206 1.38843C3.97409 1.38843 3.37637 1.64676 2.86984 2.13304C2.86477 2.1381 2.86477 2.1381 2.85971 2.14317L1.13748 3.88059C0.489117 4.52895 0.119345 5.31915 0.0382993 6.23598C-0.0832695 7.71507 0.352352 9.09285 0.686666 9.99448C1.50725 12.208 2.73307 14.2595 4.56167 16.4579C6.7803 19.1071 9.44975 21.1991 12.4991 22.6731C13.6641 23.2252 15.2192 23.8786 16.9566 23.9901C17.063 23.9951 17.1744 24.0002 17.2757 24.0002C18.4458 24.0002 19.4285 23.5798 20.1985 22.744C20.2035 22.7339 20.2136 22.7288 20.2187 22.7187C20.4821 22.3996 20.786 22.1108 21.1052 21.8018C21.323 21.5942 21.5458 21.3764 21.7636 21.1484C22.2651 20.6267 22.5285 20.0188 22.5285 19.3958C22.5285 18.7677 22.2601 18.1649 21.7485 17.6584L18.9676 14.8674ZM20.781 20.2012C20.7759 20.2012 20.7759 20.2063 20.781 20.2012C20.5834 20.4139 20.3808 20.6064 20.163 20.8192C19.8337 21.1332 19.4994 21.4625 19.1854 21.8322C18.6738 22.3793 18.071 22.6376 17.2808 22.6376C17.2048 22.6376 17.1238 22.6376 17.0478 22.6326C15.5434 22.5363 14.1453 21.9487 13.0968 21.4473C10.2298 20.0594 7.71233 18.0889 5.62033 15.5917C3.89304 13.5098 2.73814 11.585 1.97327 9.51834C1.50219 8.25706 1.32997 7.27438 1.40595 6.34742C1.4566 5.75477 1.68454 5.26343 2.10497 4.84301L3.83226 3.11572C4.08046 2.88271 4.34386 2.75608 4.60219 2.75608C4.92131 2.75608 5.17964 2.94856 5.34174 3.11065C5.3468 3.11572 5.35187 3.12078 5.35693 3.12585C5.66592 3.41457 5.95971 3.71343 6.2687 4.03255C6.42572 4.19464 6.58782 4.35673 6.74991 4.52389L8.13275 5.90673C8.66968 6.44366 8.66968 6.94007 8.13275 7.477C7.98586 7.62389 7.84403 7.77079 7.69713 7.91262C7.27164 8.34824 6.86641 8.75347 6.42572 9.14857C6.41559 9.1587 6.40546 9.16376 6.4004 9.17389C5.96478 9.60951 6.04582 10.035 6.137 10.3237C6.14206 10.3389 6.14713 10.3541 6.15219 10.3693C6.51184 11.2406 7.01837 12.0611 7.78831 13.0388L7.79337 13.0438C9.19141 14.7661 10.6654 16.1084 12.2914 17.1366C12.4991 17.2683 12.7118 17.3747 12.9145 17.476C13.0968 17.5672 13.269 17.6533 13.4159 17.7445C13.4362 17.7546 13.4564 17.7698 13.4767 17.7799C13.6489 17.8661 13.811 17.9066 13.9782 17.9066C14.3986 17.9066 14.662 17.6432 14.7481 17.5571L16.4805 15.8247C16.6527 15.6525 16.9262 15.4448 17.2453 15.4448C17.5594 15.4448 17.8177 15.6424 17.9748 15.8146C17.9798 15.8196 17.9798 15.8196 17.9849 15.8247L20.7759 18.6157C21.2976 19.1324 21.2976 19.6643 20.781 20.2012Z"/>
        <path d="M12.9702 5.70908C14.2973 5.93196 15.5029 6.56006 16.4653 7.52248C17.4277 8.4849 18.0507 9.69046 18.2787 11.0176C18.3344 11.3519 18.6231 11.5849 18.9524 11.5849C18.9929 11.5849 19.0284 11.5798 19.0689 11.5748C19.4437 11.514 19.6919 11.1594 19.6311 10.7846C19.3576 9.17886 18.5978 7.71497 17.4378 6.555C16.2779 5.39503 14.814 4.63522 13.2083 4.36169C12.8334 4.30091 12.4839 4.54911 12.4181 4.91888C12.3522 5.28866 12.5954 5.6483 12.9702 5.70908Z"/>
        <path d="M23.9721 10.5872C23.5213 7.94303 22.2752 5.53698 20.3605 3.62227C18.4458 1.70757 16.0398 0.461487 13.3957 0.0106694C13.0259 -0.0551803 12.6764 0.198088 12.6105 0.56786C12.5497 0.942697 12.7979 1.29221 13.1728 1.35806C15.5332 1.75822 17.686 2.87767 19.3981 4.58469C21.1102 6.29679 22.2246 8.44957 22.6248 10.81C22.6805 11.1443 22.9692 11.3773 23.2984 11.3773C23.339 11.3773 23.3744 11.3723 23.415 11.3672C23.7847 11.3115 24.038 10.9569 23.9721 10.5872Z"/>
    </symbol>

    <symbol id="mail" viewBox="0 0 24 18">
        <path d="M21.75 0.000244141H2.25002C1.00928 0.000244141 0 1.00952 0 2.25026V15.7503C0 16.991 1.00928 18.0003 2.25002 18.0003H21.75C22.9907 18.0003 24 16.991 24 15.7503V2.25026C24 1.00952 22.9907 0.000244141 21.75 0.000244141ZM21.75 1.50024C21.8519 1.50024 21.9488 1.52138 22.0375 1.5583L12 10.2578L1.9625 1.5583C2.05113 1.52143 2.14807 1.50024 2.24997 1.50024H21.75ZM21.75 16.5002H2.25002C1.8362 16.5002 1.49999 16.1641 1.49999 15.7502V3.14306L11.5085 11.8171C11.6499 11.9394 11.825 12.0002 12 12.0002C12.175 12.0002 12.3501 11.9395 12.4915 11.8171L22.5 3.14306V15.7503C22.5 16.1641 22.1638 16.5002 21.75 16.5002Z"/>
    </symbol>

    <symbol id="vk" viewBox="0 0 24 24">
        <path d="M23.7861 17.3671C23.7216 17.2591 23.3226 16.392 21.4024 14.6099C19.3923 12.7438 19.6623 13.0468 22.0835 9.82005C23.5581 7.8549 24.1476 6.65482 23.9631 6.14178C23.7876 5.65274 22.703 5.78175 22.703 5.78175L19.0967 5.80275C19.0967 5.80275 18.8297 5.76675 18.6302 5.88526C18.4367 6.00227 18.3122 6.27229 18.3122 6.27229C18.3122 6.27229 17.7406 7.7934 16.9786 9.0865C15.372 11.8152 14.7284 11.9592 14.4659 11.7897C13.8553 11.3952 14.0084 10.2026 14.0084 9.35652C14.0084 6.71182 14.4089 5.60924 13.2268 5.32422C12.8338 5.22971 12.5458 5.1667 11.5422 5.1562C10.2551 5.1427 9.1645 5.1607 8.54795 5.46223C8.13692 5.66324 7.8204 6.11178 8.01391 6.13728C8.25243 6.16878 8.79247 6.28279 9.07899 6.67282C9.44952 7.17535 9.43602 8.30644 9.43602 8.30644C9.43602 8.30644 9.64904 11.4192 8.93948 11.8062C8.45195 12.0717 7.7844 11.5302 6.35179 9.05349C5.61824 7.7859 5.0632 6.3833 5.0632 6.3833C5.0632 6.3833 4.95669 6.12228 4.76617 5.98277C4.53516 5.81325 4.21113 5.75925 4.21113 5.75925L0.781878 5.78025C0.781878 5.78025 0.267339 5.79525 0.0783254 6.01877C-0.089687 6.21828 0.0648244 6.62931 0.0648244 6.62931C0.0648244 6.62931 2.75002 12.9103 5.78925 16.077C8.57796 18.9797 11.7432 18.7892 11.7432 18.7892H13.1773C13.1773 18.7892 13.6108 18.7412 13.8313 18.5027C14.0354 18.2837 14.0279 17.8727 14.0279 17.8727C14.0279 17.8727 13.9994 15.948 14.8934 15.6645C15.774 15.3855 16.9051 17.5246 18.1037 18.3482C19.0097 18.9707 19.6983 18.8342 19.6983 18.8342L22.904 18.7892C22.904 18.7892 24.5811 18.6857 23.7861 17.3671Z"/>
    </symbol>

    <symbol id="instagram" viewBox="0 0 24 24">
        <g>
            <path d="M23.9765 7.05607C23.9203 5.78085 23.7141 4.90416 23.4186 4.14449C23.1139 3.33812 22.6451 2.61617 22.0308 2.01602C21.4306 1.40652 20.7039 0.932921 19.9069 0.632936C19.1429 0.337529 18.2707 0.131312 16.9955 0.0750879C15.7108 0.0141019 15.3029 0 12.0445 0C8.78604 0 8.37819 0.0141019 7.09822 0.0703262C5.82301 0.126551 4.94631 0.332951 4.18682 0.628174C3.38027 0.932922 2.65833 1.40176 2.05818 2.01602C1.44868 2.61617 0.975263 3.34288 0.675095 4.13991C0.379689 4.90416 0.173472 5.77609 0.117248 7.0513C0.0562619 8.33604 0.04216 8.7439 0.04216 12.0023C0.04216 15.2608 0.0562619 15.6686 0.112486 16.9486C0.16871 18.2238 0.37511 19.1005 0.670517 19.8602C0.975263 20.6666 1.44868 21.3885 2.05818 21.9887C2.65833 22.5982 3.38503 23.0718 4.18206 23.3718C4.94631 23.6672 5.81824 23.8734 7.09364 23.9296C8.37343 23.986 8.78147 23.9999 12.0399 23.9999C15.2984 23.9999 15.7062 23.986 16.9862 23.9296C18.2614 23.8734 19.1381 23.6672 19.8976 23.3718C21.5105 22.7482 22.7857 21.4729 23.4093 19.8602C23.7045 19.096 23.9109 18.2238 23.9672 16.9486C24.0234 15.6686 24.0375 15.2608 24.0375 12.0023C24.0375 8.7439 24.0327 8.33604 23.9765 7.05607ZM21.8152 16.8549C21.7636 18.027 21.5667 18.6599 21.4026 19.0819C20.9994 20.1274 20.1695 20.9572 19.124 21.3605C18.702 21.5246 18.0645 21.7215 16.897 21.7729C15.6311 21.8293 15.2515 21.8433 12.0493 21.8433C8.84703 21.8433 8.46262 21.8293 7.20132 21.7729C6.02922 21.7215 5.39629 21.5246 4.97433 21.3605C4.45403 21.1682 3.98042 20.8634 3.59601 20.4649C3.1975 20.0758 2.89275 19.6069 2.70045 19.0866C2.53636 18.6647 2.33948 18.027 2.28802 16.8596C2.23161 15.5937 2.21769 15.2139 2.21769 12.0117C2.21769 8.80946 2.23161 8.42505 2.28802 7.16394C2.33948 5.99183 2.53636 5.3589 2.70045 4.93694C2.89275 4.41645 3.1975 3.94303 3.60077 3.55843C3.98976 3.15992 4.45861 2.85517 4.97909 2.66306C5.40105 2.49896 6.03875 2.30209 7.20609 2.25044C8.47196 2.19422 8.85179 2.18011 12.0538 2.18011C15.2608 2.18011 15.6405 2.19422 16.9018 2.25044C18.0739 2.30209 18.7068 2.49896 19.1287 2.66306C19.6491 2.85517 20.1227 3.15992 20.5071 3.55843C20.9056 3.94761 21.2103 4.41645 21.4026 4.93694C21.5667 5.3589 21.7636 5.99641 21.8152 7.16394C21.8715 8.42981 21.8856 8.80946 21.8856 12.0117C21.8856 15.2139 21.8715 15.589 21.8152 16.8549Z"/>
            <path d="M12.0445 5.83691C8.64083 5.83691 5.87924 8.59832 5.87924 12.0022C5.87924 15.406 8.64083 18.1674 12.0445 18.1674C15.4484 18.1674 18.2098 15.406 18.2098 12.0022C18.2098 8.59832 15.4484 5.83691 12.0445 5.83691ZM12.0445 16.0014C9.83637 16.0014 8.04525 14.2105 8.04525 12.0022C8.04525 9.79386 9.83637 8.00293 12.0445 8.00293C14.2528 8.00293 16.0438 9.79386 16.0438 12.0022C16.0438 14.2105 14.2528 16.0014 12.0445 16.0014Z"/>
            <path d="M19.893 5.59336C19.893 6.3882 19.2485 7.03267 18.4535 7.03267C17.6587 7.03267 17.0142 6.3882 17.0142 5.59336C17.0142 4.79835 17.6587 4.15405 18.4535 4.15405C19.2485 4.15405 19.893 4.79835 19.893 5.59336Z"/>
        </g>
    </symbol>

    <symbol id="fb" viewBox="0 0 24 24">
        <path d="M13.5 8.25V5.25C13.5 4.422 14.172 3.75 15 3.75H16.5V0H13.5C11.0145 0 9 2.0145 9 4.5V8.25H6V12H9V24H13.5V12H16.5L18 8.25H13.5Z"/>
    </symbol>

    <symbol id="whatsapp" viewBox="0 0 24 24">
        <path fill-rule="evenodd" clip-rule="evenodd"
              d="M19.9589 4.00809C17.8539 1.90063 15.0545 0.739517 12.0721 0.738281C5.92662 0.738281 0.925095 5.73967 0.922623 11.8868C0.921799 13.8518 1.43514 15.77 2.41086 17.4608L0.829102 23.2383L6.73961 21.6878C8.3682 22.5762 10.2017 23.0444 12.0676 23.0449H12.0722C18.217 23.0449 23.2191 18.0431 23.2214 11.8957C23.2227 8.9165 22.064 6.1154 19.9589 4.00809ZM12.0721 21.162H12.0683C10.4055 21.1613 8.77469 20.7144 7.35169 19.8703L7.01345 19.6694L3.50606 20.5895L4.44223 17.1698L4.22182 16.8192C3.29416 15.3438 2.80431 13.6384 2.80513 11.8875C2.80705 6.77815 6.96428 2.62134 12.0758 2.62134C14.551 2.62216 16.8778 3.58731 18.6274 5.33894C20.377 7.09057 21.3399 9.41885 21.3391 11.895C21.3369 17.0048 17.1799 21.162 12.0721 21.162ZM17.1552 14.2215C16.8767 14.082 15.507 13.4083 15.2516 13.3152C14.9964 13.2222 14.8104 13.1759 14.6249 13.4547C14.4391 13.7335 13.9053 14.3611 13.7427 14.5469C13.5801 14.7328 13.4178 14.7561 13.1392 14.6166C12.8605 14.4772 11.9629 14.1829 10.8988 13.2339C10.0707 12.4952 9.5116 11.5829 9.349 11.3041C9.18668 11.0251 9.34763 10.8888 9.47123 10.7356C9.7728 10.3611 10.0748 9.96844 10.1676 9.78264C10.2606 9.59669 10.214 9.43396 10.1443 9.29457C10.0748 9.15518 9.51764 7.78395 9.28556 7.22598C9.05924 6.68298 8.82976 6.75632 8.65865 6.7478C8.49633 6.7397 8.31052 6.73805 8.12471 6.73805C7.93905 6.73805 7.6372 6.80768 7.38176 7.08673C7.12647 7.36564 6.40686 8.03952 6.40686 9.41075C6.40686 10.782 7.40511 12.1067 7.54436 12.2926C7.68361 12.4785 9.50886 15.2924 12.3034 16.499C12.968 16.7863 13.4869 16.9575 13.8916 17.0859C14.559 17.298 15.1661 17.268 15.6462 17.1963C16.1815 17.1163 17.2943 16.5223 17.5267 15.8717C17.7588 15.2209 17.7588 14.6632 17.689 14.5469C17.6195 14.4307 17.4337 14.3611 17.1552 14.2215Z"/>
    </symbol>

    <symbol id="viber" viewBox="0 0 24 24">
        <g>
            <path d="M23.155 13.893C23.871 7.86602 22.811 4.06102 20.899 2.34002L20.9 2.33902C17.814 -0.599975 7.39202 -1.03498 3.70002 2.47102C2.04202 4.18602 1.45802 6.70302 1.39402 9.81903C1.33002 12.936 1.25402 18.775 6.69502 20.359H6.70002L6.69502 22.778C6.69502 22.778 6.65802 23.758 7.28402 23.955C8.00002 24.187 8.32402 23.732 10.551 21.072C14.275 21.395 17.135 20.655 17.46 20.547C18.212 20.295 22.467 19.732 23.155 13.893ZM10.918 19.37C10.918 19.37 8.56102 22.309 7.82802 23.072C7.58802 23.32 7.32502 23.297 7.32902 22.805C7.32902 22.482 7.34702 18.789 7.34702 18.789C2.73402 17.467 3.00602 12.495 3.05602 9.89402C3.10602 7.29202 3.58202 5.16102 4.98602 3.72602C8.22502 0.689025 17.362 1.36802 19.69 3.55602C22.536 6.07902 21.523 13.207 21.529 13.45C20.944 18.324 17.496 18.633 16.862 18.844C16.591 18.934 14.076 19.581 10.918 19.37Z"/>
            <path d="M12.222 4.29688C11.837 4.29688 11.837 4.89688 12.222 4.90188C15.209 4.92488 17.669 7.00688 17.696 10.8259C17.696 11.2289 18.286 11.2239 18.281 10.8209H18.28C18.248 6.70588 15.562 4.31988 12.222 4.29688Z"/>
            <path d="M16.151 10.193C16.142 10.591 16.731 10.61 16.736 10.207C16.785 7.93804 15.386 6.06904 12.757 5.87204C12.372 5.84404 12.332 6.44904 12.716 6.47704C14.996 6.65004 16.197 8.20604 16.151 10.193Z"/>
            <path d="M15.521 12.7741C15.027 12.4881 14.524 12.6661 14.316 12.9471L13.881 13.5101C13.66 13.7961 13.247 13.7581 13.247 13.7581C10.233 12.9611 9.427 9.8071 9.427 9.8071C9.427 9.8071 9.39 9.3801 9.666 9.1511L10.21 8.7011C10.482 8.4851 10.654 7.9651 10.377 7.4541C9.637 6.1171 9.14 5.6561 8.887 5.3021C8.621 4.9691 8.221 4.8941 7.805 5.1191H7.796C6.931 5.6251 5.984 6.5721 6.287 7.5471C6.804 8.5751 7.754 11.8521 10.782 14.3281C12.205 15.4991 14.457 16.6991 15.413 16.9761L15.422 16.9901C16.364 17.3041 17.28 16.3201 17.769 15.4291V15.4221C17.986 14.9911 17.914 14.5831 17.597 14.3161C17.035 13.7681 16.187 13.1631 15.521 12.7741Z"/>
            <path d="M13.169 8.10393C14.13 8.15993 14.596 8.66193 14.646 9.69294C14.664 10.0959 15.249 10.0679 15.231 9.66494C15.167 8.31893 14.465 7.56893 13.201 7.49893C12.816 7.47593 12.78 8.08093 13.169 8.10393Z"/>
        </g>
    </symbol>

    <symbol id="telegram" viewBox="0 0 24 24">
        <g>
            <path d="M0.415005 11.196L6.28401 14.121C6.51101 14.233 6.77901 14.225 6.99601 14.098L12.22 11.061L9.05801 13.863C8.89701 14.006 8.80501 14.21 8.80501 14.425V21.25C8.80501 21.97 9.72401 22.273 10.155 21.701L12.692 18.328L18.966 21.901C19.406 22.154 19.97 21.9 20.072 21.397L23.985 1.89704C24.102 1.31104 23.519 0.833044 22.977 1.05104L0.477005 9.82605C-0.126995 10.062 -0.165995 10.907 0.415005 11.196ZM22.245 2.94704L18.806 20.084L12.861 16.698C12.537 16.513 12.12 16.595 11.89 16.899L10.305 19.006V14.762L18.856 7.18604C19.533 6.58704 18.755 5.52204 17.982 5.97604L6.59201 12.598L2.60001 10.609L22.245 2.94704Z"/>
        </g>
    </symbol>

</svg>